<svg fill="none" height="555" viewBox="0 0 870 555" width="870" xmlns="http://www.w3.org/2000/svg" xmlns:xlink="http://www.w3.org/1999/xlink"><linearGradient id="a"><stop offset="0" stop-color="#ec6348" stop-opacity=".5"/><stop offset=".0976" stop-color="#e8684c" stop-opacity=".5488"/><stop offset=".2452" stop-color="#dd7658" stop-opacity=".6226"/><stop offset=".4246" stop-color="#c8886c" stop-opacity=".7123"/><stop offset=".6289" stop-color="#a39a87" stop-opacity=".8144"/><stop offset=".8511" stop-color="#59a5a7" stop-opacity=".9256"/><stop offset="1" stop-color="#00a7bc"/></linearGradient><linearGradient id="b" gradientUnits="userSpaceOnUse" x1="385.224" x2="398.029" xlink:href="#a" y1="175.929" y2="172.17"/><linearGradient id="c" gradientUnits="userSpaceOnUse" x1="386.747" x2="380.209" xlink:href="#a" y1="180.625" y2="177.013"/><linearGradient id="d" gradientUnits="userSpaceOnUse" x1="342.708" x2="729.781" xlink:href="#a" y1="237.742" y2="596.483"/><linearGradient id="e" gradientUnits="userSpaceOnUse" x1="447.72" x2="148.166" y1="195.638" y2="451.252"><stop offset="0" stop-color="#00a7bc"/><stop offset=".045" stop-color="#009abc"/><stop offset=".1027" stop-color="#008bba"/><stop offset=".168" stop-color="#007eb7"/><stop offset=".242" stop-color="#0073b3"/><stop offset=".3283" stop-color="#0769af"/><stop offset=".4349" stop-color="#1863ac"/><stop offset=".5845" stop-color="#1e5faa"/><stop offset="1" stop-color="#1f5eaa"/></linearGradient><linearGradient id="f" gradientUnits="userSpaceOnUse" x1="623.164" x2="421.355" y1="605.053" y2="270.136"><stop offset="0" stop-color="#00a7bc"/><stop offset=".1276" stop-color="#0099bc"/><stop offset=".3201" stop-color="#0086b9"/><stop offset=".5082" stop-color="#0075b4"/><stop offset=".6879" stop-color="#0a69af"/><stop offset=".8558" stop-color="#1b61ab"/><stop offset="1" stop-color="#1f5eaa"/></linearGradient><g opacity=".61"><g opacity=".3721"><g fill="#ec6348"><path d="m390.125 179.092.064.219z" opacity=".61"/><path d="m390.125 178.872.129.438h-.065l-.064-.219z" opacity=".61"/><path d="m390.125 178.652.193.658h-.064l-.129-.438z" opacity=".61"/><path d="m390.125 178.433.258.877h-.065l-.193-.658z" opacity=".61"/></g><path d="m390.125 178.214.321 1.096h-.063l-.258-.877z" fill="#ec6347" opacity=".61"/><path d="m390.125 177.995.386 1.316h-.065l-.321-1.097z" fill="#ec6347" opacity=".61"/><path d="m390.125 177.775.45 1.536h-.064l-.386-1.316z" fill="#ec6349" opacity=".61"/><path d="m390.125 177.556.515 1.754h-.065l-.45-1.535z" fill="#ec6349" opacity=".61"/><path d="m390.125 177.337.579 1.974h-.064l-.515-1.755z" fill="#ec6349" opacity=".61"/><path d="m390.125 177.118.644 2.193h-.065l-.579-1.974z" fill="#ec6448" opacity=".61"/><path d="m390.125 176.898.708 2.413h-.064l-.644-2.193z" fill="#ec6448" opacity=".61"/><path d="m390.125 176.679.773 2.631h-.065l-.708-2.412z" fill="#ec6449" opacity=".61"/><path d="m390.125 176.46.837 2.851h-.064l-.773-2.632z" fill="#ec6449" opacity=".61"/><path d="m390.125 176.24.901 3.07h-.064l-.837-2.851z" fill="#ec6549" opacity=".61"/><path d="m390.125 176.021.966 3.29h-.065l-.901-3.07z" fill="#ec6549" opacity=".61"/><path d="m390.125 175.802 1.03 3.509h-.064l-.966-3.29z" fill="#ec6549" opacity=".61"/><path d="m390.125 175.582 1.095 3.728h-.065l-1.03-3.509z" fill="#ec654a" opacity=".61"/><path d="m390.125 175.363 1.159 3.947h-.064l-1.095-3.728z" fill="#ec654a" opacity=".61"/><path d="m390.125 175.144 1.224 4.167h-.065l-1.159-3.948z" fill="#ec6649" opacity=".61"/><path d="m390.125 174.925 1.287 4.386h-.063l-1.224-4.167z" fill="#ec6649" opacity=".61"/><path d="m390.125 174.705 1.352 4.605h-.065l-1.287-4.386z" fill="#ec664b" opacity=".61"/><path d="m390.125 174.485 1.416 4.826h-.064l-1.352-4.606z" fill="#ec664b" opacity=".61"/><path d="m390.125 174.266 1.481 5.044h-.065l-1.416-4.825z" fill="#ec664b" opacity=".61"/><path d="m390.125 174.047 1.545 5.263h-.064l-1.481-5.044z" fill="#ec664b" opacity=".61"/><path d="m390.125 173.828 1.609 5.483h-.064l-1.545-5.264z" fill="#ec654c" opacity=".61"/><path d="m390.125 173.608 1.674 5.703h-.065l-1.609-5.483z" fill="#ec664c" opacity=".61"/><path d="m390.125 173.389 1.738 5.921h-.064l-1.674-5.702z" fill="#ec674c" opacity=".61"/><path d="m390.125 173.17 1.803 6.141h-.065l-1.738-5.922z" fill="#ed684b" opacity=".61"/><path d="m390.125 172.95 1.867 6.36h-.064l-1.803-6.141z" fill="#ed684c" opacity=".61"/><path d="m390.125 172.73 1.932 6.58h-.065l-1.867-6.36z" fill="#ed684c" opacity=".61"/><path d="m390.125 172.512 1.996 6.799h-.064l-1.932-6.58z" fill="#ed684c" opacity=".61"/><path d="m390.125 172.292 2.061 7.018h-.065l-1.996-6.799z" fill="#ed684c" opacity=".61"/><path d="m390.125 172.073 2.125 7.237h-.064l-2.061-7.018z" fill="#ed694d" opacity=".61"/><path d="m390.125 171.854 2.189 7.457h-.064l-2.125-7.238z" fill="#ed684c" opacity=".61"/><path d="m390.125 171.635 2.254 7.676h-.065l-2.189-7.457z" fill="#ed694d" opacity=".61"/><path d="m390.125 171.415 2.318 7.895h-.064l-2.254-7.676z" fill="#ed694d" opacity=".61"/><path d="m390.125 171.196 2.382 8.115h-.064l-2.318-7.896z" fill="#ed694d" opacity=".61"/><path d="m390.125 170.977 2.446 8.334h-.064l-2.382-8.115z" fill="#ed694e" opacity=".61"/><path d="m390.125 170.758 2.511 8.553h-.065l-2.446-8.334z" fill="#ec694e" opacity=".61"/><path d="m390.125 170.538 2.575 8.773h-.064l-2.511-8.554z" fill="#ec694e" opacity=".61"/><path d="m390.125 170.319 2.64 8.992h-.065l-2.575-8.773z" fill="#ec694f" opacity=".61"/><path d="m390.125 170.099 2.704 9.211h-.064l-2.64-8.991z" fill="#eb694f" opacity=".61"/><path d="m390.125 169.88 2.769 9.431h-.065l-2.704-9.212z" fill="#ea694f" opacity=".61"/><path d="m390.125 169.661 2.833 9.65h-.064l-2.769-9.431z" fill="#ea6950" opacity=".61"/><path d="m390.125 169.442 2.898 9.869h-.065l-2.833-9.65z" fill="#e86b50" opacity=".61"/><path d="m390.125 169.222 2.962 10.088h-.064l-2.898-9.868z" fill="#e66a50" opacity=".61"/><path d="m390.125 169.002 3.026 10.308h-.064l-2.962-10.089z" fill="#e66b51" opacity=".61"/><path d="m390.125 168.783 3.091 10.527h-.065l-3.026-10.308z" fill="#e66b51" opacity=".61"/><path d="m390.125 168.564 3.155 10.747h-.064l-3.091-10.527z" fill="#e56b52" opacity=".61"/><path d="m390.125 168.345 3.22 10.966h-.065l-3.155-10.746z" fill="#e36d52" opacity=".61"/><path d="m390.125 168.125 3.284 11.185h-.064l-3.22-10.966z" fill="#e16c52" opacity=".61"/><path d="m390.125 167.906 3.348 11.404h-.064l-3.284-11.185z" fill="#e16c53" opacity=".61"/><path d="m390.125 167.688 3.412 11.623h-.064l-3.348-11.404z" fill="#e16d54" opacity=".61"/><path d="m390.125 167.468 3.477 11.843h-.065l-3.412-11.623z" fill="#df6d54" opacity=".61"/><path d="m390.125 167.248 3.541 12.062h-.064l-3.477-11.843z" fill="#de6f56" opacity=".61"/><path d="m390.125 167.029 3.606 12.282h-.065l-3.541-12.063z" fill="#de6f56" opacity=".61"/><path d="m390.125 166.81 3.67 12.5h-.064l-3.606-12.281z" fill="#dd6e57" opacity=".61"/><path d="m390.125 166.591 3.735 12.72h-.065l-3.67-12.5z" fill="#dc6e57" opacity=".61"/><path d="m390.125 166.371 3.799 12.94h-.064l-3.735-12.721z" fill="#db6e57" opacity=".61"/><path d="m390.125 166.152 3.863 13.159h-.064l-3.799-12.94z" fill="#da6f58" opacity=".61"/><path d="m390.125 165.933 3.928 13.377h-.065l-3.863-13.158z" fill="#da6f58" opacity=".61"/><path d="m390.125 165.713 3.992 13.598h-.064l-3.928-13.378z" fill="#d97058" opacity=".61"/><path d="m390.125 165.494 4.057 13.817h-.065l-3.992-13.598z" fill="#d76f58" opacity=".61"/><path d="m390.125 165.274 4.121 14.036h-.064l-4.057-13.816z" fill="#d77059" opacity=".61"/><path d="m390.125 165.056 4.186 14.255h-.065l-4.121-14.036z" fill="#d5715a" opacity=".61"/><path d="m390.125 164.835 4.25 14.475h-.064l-4.186-14.255z" fill="#d4715b" opacity=".61"/><path d="m390.125 164.616 4.315 14.694h-.065l-4.25-14.475z" fill="#d3715c" opacity=".61"/><path d="m390.125 164.397 4.378 14.914h-.063l-4.315-14.694z" fill="#d3715c" opacity=".61"/><path d="m390.125 164.179 4.443 15.132h-.065l-4.378-14.913z" fill="#d1725d" opacity=".61"/><path d="m390.125 163.958 4.507 15.352h-.064l-4.443-15.132z" fill="#d0725c" opacity=".61"/><path d="m390.125 163.739 4.572 15.572h-.065l-4.507-15.353z" fill="#d0725e" opacity=".61"/><path d="m390.125 163.52 4.636 15.79h-.064l-4.572-15.571z" fill="#ce725e" opacity=".61"/><path d="m390.125 163.302 4.7 16.009h-.064l-4.636-15.79z" fill="#cd725e" opacity=".61"/><path d="m390.125 163.081 4.765 16.23h-.065l-4.7-16.01z" fill="#cb745f" opacity=".61"/><path d="m390.125 162.861 4.829 16.449h-.064l-4.765-16.23z" fill="#ca745f" opacity=".61"/><path d="m390.155 162.745 4.864 16.566h-.065l-4.829-16.449v-.117z" fill="#ca7461" opacity=".61"/><path d="m390.219 162.745 4.864 16.566h-.065l-4.864-16.566z" fill="#ca7461" opacity=".61"/><path d="m390.283 162.745 4.864 16.566h-.064l-4.864-16.566z" fill="#c87562" opacity=".61"/><path d="m390.348 162.745 4.864 16.566h-.065l-4.864-16.566z" fill="#c77562" opacity=".61"/><path d="m390.412 162.745 4.864 16.566h-.064l-4.864-16.566z" fill="#c67563" opacity=".61"/><path d="m390.477 162.745 4.864 16.566h-.065l-4.864-16.566z" fill="#c57563" opacity=".61"/><path d="m390.541 162.745 4.864 16.566h-.064l-4.864-16.566z" fill="#c47764" opacity=".61"/><path d="m390.605 162.745 4.864 16.566h-.064l-4.864-16.566z" fill="#c37764" opacity=".61"/><path d="m390.672 162.745 4.863 16.566h-.064l-4.864-16.566z" fill="#c27765" opacity=".61"/><path d="m390.736 162.745 4.863 16.566h-.064l-4.863-16.566z" fill="#c07766" opacity=".61"/><path d="m390.801 162.745 4.863 16.566h-.065l-4.863-16.566z" fill="#c07766" opacity=".61"/><path d="m390.865 162.745 4.863 16.566h-.064l-4.863-16.566z" fill="#be7867" opacity=".61"/><path d="m390.929 162.745 4.864 16.566h-.065l-4.863-16.566z" fill="#bd7867" opacity=".61"/><path d="m390.992 162.745 4.864 16.566h-.064l-4.864-16.566z" fill="#bc7968" opacity=".61"/><path d="m391.057 162.745 4.864 16.566h-.065l-4.864-16.566z" fill="#ba7868" opacity=".61"/><path d="m391.121 162.745 4.864 16.566h-.064l-4.864-16.566z" fill="#b97969" opacity=".61"/><path d="m391.186 162.745 4.863 16.566h-.064l-4.864-16.566z" fill="#b77969" opacity=".61"/><path d="m391.25 162.745 4.864 16.566h-.065l-4.863-16.566z" fill="#b67a6b" opacity=".61"/><path d="m391.314 162.745 4.864 16.566h-.064l-4.864-16.566z" fill="#b6796a" opacity=".61"/><path d="m391.379 162.745 4.864 16.566h-.065l-4.864-16.566z" fill="#b57b6b" opacity=".61"/><path d="m391.443 162.745 4.864 16.566h-.064l-4.864-16.566z" fill="#b47b6b" opacity=".61"/><path d="m391.508 162.745 4.864 16.566h-.065l-4.864-16.566z" fill="#b27c6d" opacity=".61"/><path d="m391.572 162.745 4.864 16.566h-.064l-4.864-16.566z" fill="#b17d6d" opacity=".61"/><path d="m391.637 162.745 4.863 16.566h-.064l-4.864-16.566z" fill="#b07d6e" opacity=".61"/><path d="m391.701 162.745 4.863 16.566h-.064l-4.863-16.566z" fill="#af7c6e" opacity=".61"/><path d="m391.764 162.745 4.863 16.566h-.065l-4.863-16.566z" fill="#ae7c6f" opacity=".61"/><path d="m391.828 162.745 4.863 16.566h-.064l-4.863-16.566z" fill="#ad7e6f" opacity=".61"/><path d="m391.892 162.745 4.864 16.566h-.065l-4.863-16.566z" fill="#ab7e70" opacity=".61"/><path d="m391.957 162.745 4.864 16.566h-.064l-4.864-16.566z" fill="#aa7d70" opacity=".61"/><path d="m392.021 162.745 4.864 16.566h-.064l-4.864-16.566z" fill="#a97e71" opacity=".61"/><path d="m392.088 162.745 4.864 16.566h-.065l-4.864-16.566z" fill="#a77e72" opacity=".61"/><path d="m392.152 162.745 4.864 16.566h-.064l-4.864-16.566z" fill="#a67e73" opacity=".61"/><path d="m392.217 162.745 4.864 16.566h-.065l-4.864-16.566z" fill="#a57f74" opacity=".61"/><path d="m392.281 162.745 4.864 16.566h-.064l-4.864-16.566z" fill="#a47f74" opacity=".61"/><path d="m392.346 162.745 4.864 16.566h-.065l-4.864-16.566z" fill="#a28075" opacity=".61"/><path d="m392.41 162.745 4.864 16.566h-.064l-4.864-16.566z" fill="#a18075" opacity=".61"/><path d="m392.475 162.745 4.864 16.566h-.065l-4.864-16.566z" fill="#a08076" opacity=".61"/><path d="m392.537 162.745 4.864 16.566h-.064l-4.864-16.566z" fill="#9d8176" opacity=".61"/><path d="m392.602 162.745 4.864 16.566h-.065l-4.864-16.566z" fill="#9d8177" opacity=".61"/><path d="m392.666 162.745 4.863 16.566h-.063l-4.864-16.566z" fill="#9c8277" opacity=".61"/><path d="m392.73 162.745 4.864 16.566h-.065l-4.863-16.566z" fill="#9a8178" opacity=".61"/><path d="m392.795 162.745 4.863 16.566h-.064l-4.864-16.566z" fill="#998278" opacity=".61"/><path d="m392.859 162.745 4.864 16.566h-.065l-4.863-16.566z" fill="#978279" opacity=".61"/><path d="m392.923 162.745 4.864 16.566h-.064l-4.864-16.566z" fill="#96827a" opacity=".61"/><path d="m392.988 162.745 4.864 16.566h-.064l-4.864-16.566z" fill="#96837b" opacity=".61"/><path d="m393.053 162.745 4.864 16.566h-.065l-4.864-16.566z" fill="#94837c" opacity=".61"/><path d="m393.117 162.745 4.864 16.566h-.064l-4.864-16.566z" fill="#92837b" opacity=".61"/><path d="m393.182 162.745 4.864 16.566h-.065l-4.864-16.566z" fill="#91847c" opacity=".61"/><path d="m393.246 162.745 4.864 16.566h-.064l-4.864-16.566z" fill="#8f857d" opacity=".61"/><path d="m393.309 162.745 4.864 16.566h-.065l-4.864-16.566z" fill="#8e857d" opacity=".61"/><path d="m393.373 162.745 4.864 16.566h-.064l-4.864-16.566z" fill="#8c857e" opacity=".61"/><path d="m393.437 162.745 4.864 16.566h-.064l-4.864-16.566z" fill="#8b867e" opacity=".61"/><path d="m393.504 162.745 4.864 16.566h-.065l-4.864-16.566z" fill="#8a867f" opacity=".61"/><path d="m393.568 162.745 4.864 16.566h-.064l-4.864-16.566z" fill="#898780" opacity=".61"/><path d="m393.633 162.745 4.864 16.566h-.065l-4.864-16.566z" fill="#878781" opacity=".61"/><path d="m393.697 162.745 4.863 16.566h-.063l-4.864-16.566z" fill="#858780" opacity=".61"/><path d="m393.762 162.745 4.863 16.566h-.065l-4.863-16.566z" fill="#848882" opacity=".61"/><path d="m393.826 162.745 4.863 16.566h-.064l-4.863-16.566z" fill="#828883" opacity=".61"/><path d="m393.891 162.745 4.863 16.566h-.065l-4.863-16.566z" fill="#808883" opacity=".61"/><path d="m393.954 162.745 4.864 16.566h-.064l-4.863-16.566z" fill="#808884" opacity=".61"/><path d="m394.02 162.745 4.863 16.566h-.064l-4.864-16.566z" fill="#7e8984" opacity=".61"/><path d="m394.082 162.745 4.864 16.566h-.064l-4.864-16.566z" fill="#7c8985" opacity=".61"/><path d="m394.146 162.745 4.864 16.566h-.064l-4.864-16.566z" fill="#7b8a86" opacity=".61"/><path d="m394.211 162.745 4.864 16.566h-.065l-4.864-16.566z" fill="#798a87" opacity=".61"/><path d="m394.275 162.745 4.864 16.566h-.064l-4.864-16.566z" fill="#788a88" opacity=".61"/><path d="m394.34 162.745 4.829 16.449v.117h-.03l-4.864-16.566z" fill="#758a87" opacity=".61"/><path d="m394.404 162.745 4.765 16.23v.219l-4.829-16.449z" fill="#748b89" opacity=".61"/><path d="m394.469 162.745 4.7 16.011v.219l-4.765-16.23z" fill="#728b88" opacity=".61"/><path d="m394.533 162.745 4.636 15.791v.22l-4.7-16.011z" fill="#728c89" opacity=".61"/><path d="m394.598 162.745 4.571 15.572v.219l-4.636-15.791z" fill="#708c8b" opacity=".61"/><path d="m394.662 162.745 4.507 15.352v.22l-4.571-15.572z" fill="#6e8c8b" opacity=".61"/><path d="m394.727 162.745 4.442 15.133v.219l-4.507-15.352z" fill="#6c8d8c" opacity=".61"/><path d="m394.791 162.745 4.378 14.914v.219l-4.442-15.133z" fill="#6a8d8d" opacity=".61"/><path d="m394.855 162.745 4.314 14.694v.22l-4.378-14.914z" fill="#698d8d" opacity=".61"/><path d="m394.92 162.745 4.249 14.475v.219l-4.314-14.694z" fill="#688d8e" opacity=".61"/><path d="m394.984 162.745 4.185 14.256v.219l-4.249-14.475z" fill="#658e8e" opacity=".61"/><path d="m395.049 162.745 4.121 14.037v.219l-4.186-14.256z" fill="#648f90" opacity=".61"/><path d="m395.113 162.745 4.057 13.817v.22l-4.121-14.037z" fill="#638f91" opacity=".61"/><path d="m395.178 162.745 3.992 13.598v.219l-4.057-13.817z" fill="#619090" opacity=".61"/><path d="m395.242 162.745 3.928 13.379v.219l-3.992-13.598z" fill="#5d9092" opacity=".61"/><path d="m395.307 162.745 3.863 13.16v.219l-3.928-13.379z" fill="#5c9091" opacity=".61"/><path d="m395.371 162.745 3.799 12.94v.22l-3.863-13.16z" fill="#5a9192" opacity=".61"/><path d="m395.436 162.745 3.734 12.721v.219l-3.799-12.94z" fill="#599193" opacity=".61"/><path d="m395.5 162.745 3.67 12.502v.219l-3.734-12.721z" fill="#569193" opacity=".61"/><path d="m395.564 162.745 3.606 12.282v.22l-3.67-12.502z" fill="#549295" opacity=".61"/><path d="m395.629 162.745 3.541 12.063v.219l-3.606-12.282z" fill="#529296" opacity=".61"/><path d="m395.693 162.745 3.477 11.843v.22l-3.541-12.063z" fill="#4f9296" opacity=".61"/><path d="m395.758 162.745 3.412 11.624v.219l-3.477-11.843z" fill="#4d9397" opacity=".61"/><path d="m395.822 162.745 3.348 11.405v.219l-3.412-11.624z" fill="#4c9398" opacity=".61"/><path d="m395.887 162.745 3.283 11.185v.22l-3.348-11.405z" fill="#4a9398" opacity=".61"/><path d="m395.951 162.745 3.219 10.966v.219l-3.283-11.185z" fill="#479498" opacity=".61"/><path d="m396.015 162.745 3.155 10.747v.219l-3.219-10.966z" fill="#459499" opacity=".61"/><path d="m396.078 162.745 3.091 10.528v.219l-3.155-10.747z" fill="#449499" opacity=".61"/><path d="m396.143 162.745 3.026 10.308v.22l-3.091-10.528z" fill="#40959b" opacity=".61"/><path d="m396.207 162.745 2.962 10.089v.219l-3.026-10.308z" fill="#3d959b" opacity=".61"/><path d="m396.271 162.745 2.898 9.87v.219l-2.962-10.089z" fill="#3b959c" opacity=".61"/><path d="m396.336 162.745 2.833 9.651v.219l-2.898-9.87z" fill="#39969c" opacity=".61"/><path d="m396.4 162.745 2.769 9.431v.22l-2.833-9.651z" fill="#34969d" opacity=".61"/><path d="m396.465 162.745 2.704 9.212v.219l-2.769-9.431z" fill="#31969e" opacity=".61"/><path d="m396.529 162.745 2.64 8.993v.219l-2.704-9.212z" fill="#2e979f" opacity=".61"/><path d="m396.594 162.745 2.575 8.773v.22l-2.64-8.993z" fill="#2b979f" opacity=".61"/><path d="m396.658 162.745 2.511 8.554v.219l-2.575-8.773z" fill="#2a98a0" opacity=".61"/><path d="m396.723 162.745 2.446 8.334v.22l-2.511-8.554z" fill="#2699a1" opacity=".61"/><path d="m396.789 162.745 2.382 8.115v.219l-2.446-8.334z" fill="#1e98a1" opacity=".61"/><path d="m396.853 162.745 2.318 7.896v.219l-2.382-8.115z" fill="#1a98a2" opacity=".61"/><path d="m396.918 162.745 2.253 7.676v.22l-2.317-7.896z" fill="#1799a3" opacity=".61"/><path d="m396.982 162.745 2.189 7.457v.219l-2.253-7.676z" fill="#109aa3" opacity=".61"/><path d="m397.045 162.745 2.125 7.238v.219l-2.19-7.457z" fill="#069aa5" opacity=".61"/><path d="m397.109 162.745 2.061 7.019v.219l-2.125-7.238z" fill="#019ba5" opacity=".61"/><path d="m397.174 162.745 1.996 6.799v.22l-2.061-7.019z" fill="#009ba6" opacity=".61"/><path d="m397.238 162.745 1.932 6.58v.219l-1.996-6.799z" fill="#009ba7" opacity=".61"/><path d="m397.303 162.745 1.867 6.361v.219l-1.932-6.58z" fill="#009ca7" opacity=".61"/><path d="m397.367 162.745 1.803 6.142v.219l-1.867-6.361z" fill="#009ba7" opacity=".61"/><path d="m397.432 162.745 1.738 5.922v.22l-1.803-6.142z" fill="#009ca9" opacity=".61"/><path d="m397.496 162.745 1.674 5.703v.219l-1.738-5.922z" fill="#009ca9" opacity=".61"/><path d="m397.561 162.745 1.609 5.484v.219l-1.674-5.703z" fill="#009ca9" opacity=".61"/><path d="m397.625 162.745 1.545 5.264v.22l-1.609-5.484z" fill="#009caa" opacity=".61"/><path d="m397.689 162.745 1.481 5.045v.219l-1.545-5.264z" fill="#009eab" opacity=".61"/><path d="m397.754 162.745 1.416 4.825v.22l-1.481-5.045z" fill="#009eab" opacity=".61"/><path d="m397.818 162.745 1.352 4.606v.219l-1.416-4.825z" fill="#009eac" opacity=".61"/><path d="m397.883 162.745 1.287 4.386v.22l-1.352-4.606z" fill="#009fae" opacity=".61"/><path d="m397.947 162.745 1.223 4.167v.219l-1.287-4.386z" fill="#009fae" opacity=".61"/><path d="m398.011 162.745 1.159 3.948v.219l-1.223-4.167z" fill="#009fae" opacity=".61"/><path d="m398.074 162.745 1.095 3.729v.219l-1.159-3.948z" fill="#00a0b0" opacity=".61"/><path d="m398.139 162.745 1.03 3.509v.22l-1.095-3.729z" fill="#00a0b1" opacity=".61"/><path d="m398.205 162.745.966 3.29v.219l-1.03-3.509z" fill="#00a1b0" opacity=".61"/><path d="m398.27 162.745.901 3.071v.219l-.966-3.29z" fill="#00a1b2" opacity=".61"/><path d="m398.334 162.745.837 2.852v.219l-.901-3.071z" fill="#00a1b2" opacity=".61"/><path d="m398.398 162.745.773 2.632v.22l-.837-2.852z" fill="#00a2b2" opacity=".61"/><path d="m398.463 162.745.708 2.413v.219l-.773-2.632z" fill="#00a2b4" opacity=".61"/><path d="m398.527 162.745.644 2.194v.219l-.708-2.413z" fill="#00a2b5" opacity=".61"/><path d="m398.592 162.745.579 1.975v.219l-.644-2.194z" fill="#00a3b6" opacity=".61"/><path d="m398.656 162.745.515 1.755v.22l-.579-1.975z" fill="#00a3b6" opacity=".61"/><path d="m398.721 162.745.45 1.535v.22l-.515-1.755z" fill="#00a3b7" opacity=".61"/><path d="m398.785 162.745.386 1.316v.219l-.45-1.535z" fill="#00a5b8" opacity=".61"/><path d="m398.848 162.745.321 1.097v.219l-.386-1.316z" fill="#00a4b8" opacity=".61"/><path d="m398.912 162.745.257.877v.22l-.321-1.097z" fill="#00a6b9" opacity=".61"/><path d="m398.976 162.745.193.658v.219l-.257-.877z" fill="#00a6ba" opacity=".61"/><path d="m399.041 162.745.129.439v.219l-.193-.658z" fill="#00a5bb" opacity=".61"/><path d="m399.105 162.745.065.22v.219l-.129-.439z" fill="#00a6bb" opacity=".61"/><path d="m399.17 162.745v.22l-.065-.22z" fill="#00a7bc" opacity=".61"/></g><g opacity=".3721"><g fill="#ec6348"><path d="m388.842 179.296 3.502-6.338v6.338z" opacity=".61"/><path d="m388.803 179.297 3.541-6.41v.071l-3.502 6.339z" opacity=".61"/><path d="m388.764 179.296 3.58-6.482v.072l-3.541 6.41z" opacity=".61"/><path d="m388.725 179.296 3.6-6.517h.02v.036l-3.581 6.481z" opacity=".61"/><path d="m388.684 179.296 3.6-6.517h.04l-3.601 6.517z" opacity=".61"/></g><path d="m388.645 179.296 3.6-6.517h.039l-3.6 6.517z" fill="#ec6347" opacity=".61"/><path d="m388.605 179.296 3.6-6.517h.04l-3.6 6.517z" fill="#ec6347" opacity=".61"/><path d="m388.566 179.296 3.6-6.517h.04l-3.6 6.517z" fill="#ec6349" opacity=".61"/><path d="m388.525 179.296 3.6-6.517h.04l-3.6 6.517z" fill="#ec6349" opacity=".61"/><path d="m388.486 179.296 3.6-6.517h.04l-3.6 6.517z" fill="#ec6349" opacity=".61"/><path d="m388.447 179.296 3.6-6.517h.04l-3.6 6.517z" fill="#ec6448" opacity=".61"/><path d="m388.408 179.296 3.6-6.517h.04l-3.6 6.517z" fill="#ec6448" opacity=".61"/><path d="m388.369 179.296 3.6-6.517h.04l-3.6 6.517z" fill="#ec6449" opacity=".61"/><path d="m388.328 179.296 3.601-6.517h.039l-3.6 6.517z" fill="#ec6449" opacity=".61"/><path d="m388.289 179.296 3.601-6.517h.039l-3.6 6.517z" fill="#ec6549" opacity=".61"/><path d="m388.25 179.296 3.601-6.517h.039l-3.601 6.517z" fill="#ec6549" opacity=".61"/><path d="m388.211 179.296 3.601-6.517h.039l-3.601 6.517z" fill="#ec6549" opacity=".61"/><path d="m388.17 179.296 3.601-6.517h.039l-3.601 6.517z" fill="#ec654a" opacity=".61"/><path d="m388.131 179.296 3.601-6.517h.039l-3.601 6.517z" fill="#ec654a" opacity=".61"/><path d="m388.092 179.296 3.601-6.517h.039l-3.601 6.517z" fill="#ec6649" opacity=".61"/><path d="m388.053 179.296 3.601-6.517h.039l-3.601 6.517z" fill="#ec6649" opacity=".61"/><path d="m388.012 179.296 3.601-6.517h.039l-3.601 6.517z" fill="#ec664b" opacity=".61"/><path d="m387.973 179.296 3.6-6.517h.04l-3.601 6.517z" fill="#ec664b" opacity=".61"/><path d="m387.934 179.296 3.6-6.517h.04l-3.601 6.517z" fill="#ec664b" opacity=".61"/><path d="m387.895 179.296 3.6-6.517h.04l-3.601 6.517z" fill="#ec664b" opacity=".61"/><path d="m387.854 179.296 3.6-6.517h.04l-3.601 6.517z" fill="#ec654c" opacity=".61"/><path d="m387.814 179.296 3.601-6.517h.04l-3.601 6.517z" fill="#ec664c" opacity=".61"/><path d="m387.775 179.296 3.6-6.517h.041l-3.601 6.517z" fill="#ec674c" opacity=".61"/><path d="m387.736 179.296 3.6-6.517h.04l-3.6 6.517z" fill="#ed684b" opacity=".61"/><path d="m387.697 179.296 3.6-6.517h.04l-3.6 6.517z" fill="#ed684c" opacity=".61"/><path d="m387.658 179.296 3.6-6.517h.04l-3.6 6.517z" fill="#ed684c" opacity=".61"/><path d="m387.619 179.296 3.6-6.517h.04l-3.6 6.517z" fill="#ed684c" opacity=".61"/><path d="m387.578 179.296 3.6-6.517h.04l-3.6 6.517z" fill="#ed684c" opacity=".61"/><path d="m387.539 179.296 3.6-6.517h.04l-3.6 6.517z" fill="#ed694d" opacity=".61"/><path d="m387.498 179.296 3.6-6.517h.04l-3.6 6.517z" fill="#ed684c" opacity=".61"/><path d="m387.459 179.296 3.6-6.517h.039l-3.6 6.517z" fill="#ed694d" opacity=".61"/><path d="m387.42 179.296 3.601-6.517h.039l-3.6 6.517z" fill="#ed694d" opacity=".61"/><path d="m387.381 179.296 3.601-6.517h.039l-3.601 6.517z" fill="#ed694d" opacity=".61"/><path d="m387.34 179.296 3.601-6.517h.039l-3.601 6.517z" fill="#ed694e" opacity=".61"/><path d="m387.301 179.296 3.601-6.517h.039l-3.601 6.517z" fill="#ec694e" opacity=".61"/><path d="m387.262 179.296 3.601-6.517h.039l-3.601 6.517z" fill="#ec694e" opacity=".61"/><path d="m387.223 179.296 3.6-6.517h.04l-3.601 6.517z" fill="#ec694f" opacity=".61"/><path d="m387.182 179.296 3.6-6.517h.04l-3.601 6.517z" fill="#eb694f" opacity=".61"/><path d="m387.143 179.296 3.6-6.517h.04l-3.601 6.517z" fill="#ea694f" opacity=".61"/><path d="m387.104 179.296 3.6-6.517h.04l-3.601 6.517z" fill="#ea6950" opacity=".61"/><path d="m387.064 179.296 3.601-6.517h.04l-3.601 6.517z" fill="#e86b50" opacity=".61"/><path d="m387.025 179.296 3.601-6.517h.04l-3.601 6.517z" fill="#e66a50" opacity=".61"/><path d="m386.986 179.296 3.601-6.517h.04l-3.601 6.517z" fill="#e66b51" opacity=".61"/><path d="m386.947 179.296 3.601-6.517h.04l-3.601 6.517z" fill="#e66b51" opacity=".61"/><path d="m386.906 179.296 3.601-6.517h.04l-3.601 6.517z" fill="#e56b52" opacity=".61"/><path d="m386.867 179.296 3.601-6.517h.04l-3.601 6.517z" fill="#e36d52" opacity=".61"/><path d="m386.826 179.296 3.6-6.517h.04l-3.6 6.517z" fill="#e16c52" opacity=".61"/><path d="m386.787 179.296 3.6-6.517h.04l-3.6 6.517z" fill="#e16c53" opacity=".61"/><path d="m386.748 179.296 3.6-6.517h.04l-3.6 6.517z" fill="#e16d54" opacity=".61"/><path d="m386.709 179.296 3.6-6.517h.039l-3.6 6.517z" fill="#df6d54" opacity=".61"/><path d="m386.67 179.296 3.6-6.517h.039l-3.6 6.517z" fill="#de6f56" opacity=".61"/><path d="m386.631 179.296 3.6-6.517h.039l-3.6 6.517z" fill="#de6f56" opacity=".61"/><path d="m386.592 179.296 3.6-6.517h.039l-3.6 6.517z" fill="#dd6e57" opacity=".61"/><path d="m386.551 179.296 3.6-6.517h.039l-3.6 6.517z" fill="#dc6e57" opacity=".61"/><path d="m386.512 179.296 3.601-6.517h.039l-3.6 6.517z" fill="#db6e57" opacity=".61"/><path d="m386.471 179.296 3.601-6.517h.039l-3.601 6.517z" fill="#da6f58" opacity=".61"/><path d="m386.432 179.296 3.6-6.517h.04l-3.601 6.517z" fill="#da6f58" opacity=".61"/><path d="m386.393 179.296 3.6-6.517h.04l-3.601 6.517z" fill="#d97058" opacity=".61"/><path d="m386.354 179.296 3.6-6.517h.04l-3.601 6.517z" fill="#d76f58" opacity=".61"/><path d="m386.314 179.296 3.601-6.517h.04l-3.601 6.517z" fill="#d77059" opacity=".61"/><path d="m386.275 179.296 3.601-6.517h.04l-3.601 6.517z" fill="#d5715a" opacity=".61"/><path d="m386.234 179.296 3.601-6.517h.04l-3.601 6.517z" fill="#d4715b" opacity=".61"/><path d="m386.195 179.296 3.601-6.517h.04l-3.601 6.517z" fill="#d3715c" opacity=".61"/><path d="m386.154 179.296 3.601-6.517h.04l-3.601 6.517z" fill="#d3715c" opacity=".61"/><path d="m386.115 179.296 3.601-6.517h.04l-3.601 6.517z" fill="#d1725d" opacity=".61"/><path d="m386.076 179.296 3.601-6.517h.039l-3.6 6.517z" fill="#d0725c" opacity=".61"/><path d="m386.037 179.296 3.601-6.517h.039l-3.6 6.517z" fill="#d0725e" opacity=".61"/><path d="m385.998 179.296 3.601-6.517h.039l-3.6 6.517z" fill="#ce725e" opacity=".61"/><path d="m385.959 179.296 3.6-6.517h.04l-3.601 6.517z" fill="#cd725e" opacity=".61"/><path d="m385.92 179.296 3.6-6.517h.039l-3.6 6.517z" fill="#cb745f" opacity=".61"/><path d="m385.879 179.296 3.6-6.517h.039l-3.6 6.517z" fill="#ca745f" opacity=".61"/><path d="m385.84 179.296 3.6-6.517h.039l-3.6 6.517z" fill="#ca7461" opacity=".61"/><path d="m385.799 179.296 3.6-6.517h.039l-3.6 6.517z" fill="#ca7461" opacity=".61"/><path d="m385.76 179.296 3.6-6.517h.039l-3.6 6.517z" fill="#c87562" opacity=".61"/><path d="m385.721 179.296 3.6-6.517h.039l-3.6 6.517z" fill="#c77562" opacity=".61"/><path d="m385.682 179.296 3.6-6.517h.039l-3.6 6.517z" fill="#c67563" opacity=".61"/><path d="m385.643 179.296 3.6-6.517h.039l-3.6 6.517z" fill="#c57563" opacity=".61"/><path d="m385.604 179.296 3.6-6.517h.039l-3.6 6.517z" fill="#c47764" opacity=".61"/><path d="m385.562 179.296 3.601-6.517h.04l-3.6 6.517z" fill="#c37764" opacity=".61"/><path d="m385.523 179.296 3.601-6.517h.04l-3.601 6.517z" fill="#c27765" opacity=".61"/><path d="m385.482 179.296 3.601-6.517h.04l-3.601 6.517z" fill="#c07766" opacity=".61"/><path d="m385.443 179.296 3.601-6.517h.04l-3.601 6.517z" fill="#c07766" opacity=".61"/><path d="m385.404 179.296 3.601-6.517h.04l-3.601 6.517z" fill="#be7867" opacity=".61"/><path d="m385.365 179.296 3.601-6.517h.04l-3.601 6.517z" fill="#bd7867" opacity=".61"/><path d="m385.326 179.296 3.601-6.517h.039l-3.6 6.517z" fill="#bc7968" opacity=".61"/><path d="m385.287 179.296 3.601-6.517h.039l-3.6 6.517z" fill="#ba7868" opacity=".61"/><path d="m385.248 179.296 3.601-6.517h.039l-3.6 6.517z" fill="#b97969" opacity=".61"/><path d="m385.209 179.296 3.601-6.517h.039l-3.601 6.517z" fill="#b77969" opacity=".61"/><path d="m385.168 179.296 3.601-6.517h.039l-3.601 6.517z" fill="#b67a6b" opacity=".61"/><path d="m385.127 179.296 3.601-6.517h.039l-3.601 6.517z" fill="#b6796a" opacity=".61"/><path d="m385.088 179.296 3.601-6.517h.039l-3.601 6.517z" fill="#b57b6b" opacity=".61"/><path d="m385.049 179.296 3.6-6.517h.04l-3.601 6.517z" fill="#b47b6b" opacity=".61"/><path d="m385.01 179.296 3.6-6.517h.039l-3.6 6.517z" fill="#b27c6d" opacity=".61"/><path d="m384.971 179.296 3.6-6.517h.039l-3.6 6.517z" fill="#b17d6d" opacity=".61"/><path d="m384.932 179.296 3.6-6.517h.039l-3.6 6.517z" fill="#b07d6e" opacity=".61"/><path d="m384.893 179.296 3.6-6.517h.039l-3.6 6.517z" fill="#af7c6e" opacity=".61"/><path d="m384.852 179.296 3.6-6.517h.039l-3.6 6.517z" fill="#ae7c6f" opacity=".61"/><path d="m384.812 179.296 3.601-6.517h.039l-3.6 6.517z" fill="#ad7e6f" opacity=".61"/><path d="m384.773 179.296 3.6-6.517h.04l-3.6 6.517z" fill="#ab7e70" opacity=".61"/><path d="m384.734 179.296 3.6-6.517h.04l-3.6 6.517z" fill="#aa7d70" opacity=".61"/><path d="m384.695 179.296 3.6-6.517h.04l-3.6 6.517z" fill="#a97e71" opacity=".61"/><path d="m384.654 179.296 3.601-6.517h.04l-3.6 6.517z" fill="#a77e72" opacity=".61"/><path d="m384.615 179.296 3.601-6.517h.04l-3.601 6.517z" fill="#a67e73" opacity=".61"/><path d="m384.576 179.296 3.601-6.517h.039l-3.6 6.517z" fill="#a57f74" opacity=".61"/><path d="m384.537 179.296 3.601-6.517h.039l-3.6 6.517z" fill="#a47f74" opacity=".61"/><path d="m384.496 179.296 3.601-6.517h.039l-3.6 6.517z" fill="#a28075" opacity=".61"/><path d="m384.455 179.296 3.601-6.517h.039l-3.6 6.517z" fill="#a18075" opacity=".61"/><path d="m384.416 179.296 3.601-6.517h.039l-3.601 6.517z" fill="#a08076" opacity=".61"/><path d="m384.377 179.296 3.601-6.517h.039l-3.601 6.517z" fill="#9d8176" opacity=".61"/><path d="m384.338 179.296 3.601-6.517h.039l-3.601 6.517z" fill="#9d8177" opacity=".61"/><path d="m384.299 179.296 3.601-6.517h.039l-3.601 6.517z" fill="#9c8277" opacity=".61"/><path d="m384.26 179.296 3.601-6.517h.039l-3.601 6.517z" fill="#9a8178" opacity=".61"/><path d="m384.221 179.296 3.601-6.517h.039l-3.601 6.517z" fill="#998278" opacity=".61"/><path d="m384.18 179.296 3.601-6.517h.039l-3.601 6.517z" fill="#978279" opacity=".61"/><path d="m384.141 179.296 3.6-6.517h.04l-3.601 6.517z" fill="#96827a" opacity=".61"/><path d="m384.102 179.296 3.6-6.517h.04l-3.601 6.517z" fill="#96837b" opacity=".61"/><path d="m384.062 179.296 3.601-6.517h.039l-3.6 6.517z" fill="#94837c" opacity=".61"/><path d="m384.023 179.296 3.6-6.517h.04l-3.6 6.517z" fill="#92837b" opacity=".61"/><path d="m383.982 179.296 3.6-6.517h.04l-3.6 6.517z" fill="#91847c" opacity=".61"/><path d="m383.943 179.296 3.6-6.517h.04l-3.6 6.517z" fill="#8f857d" opacity=".61"/><path d="m383.904 179.296 3.6-6.517h.04l-3.6 6.517z" fill="#8e857d" opacity=".61"/><path d="m383.865 179.296 3.6-6.517h.04l-3.6 6.517z" fill="#8c857e" opacity=".61"/><path d="m383.824 179.296 3.6-6.517h.04l-3.6 6.517z" fill="#8b867e" opacity=".61"/><path d="m383.82 179.233 3.566-6.454h.039l-3.6 6.517h-.005z" fill="#8a867f" opacity=".61"/><path d="m383.82 179.161 3.526-6.382h.04l-3.566 6.454z" fill="#898780" opacity=".61"/><path d="m383.82 179.089 3.487-6.31h.039l-3.526 6.382z" fill="#878781" opacity=".61"/><path d="m383.82 179.018 3.447-6.239h.04l-3.487 6.31z" fill="#858780" opacity=".61"/><path d="m383.82 178.947 3.408-6.168h.039l-3.447 6.239z" fill="#848882" opacity=".61"/><path d="m383.82 178.875 3.368-6.096h.04l-3.408 6.168z" fill="#828883" opacity=".61"/><path d="m383.82 178.803 3.329-6.024h.039l-3.368 6.096z" fill="#808883" opacity=".61"/><path d="m383.82 178.732 3.289-5.953h.04l-3.329 6.024z" fill="#808884" opacity=".61"/><path d="m383.82 178.661 3.25-5.882h.039l-3.289 5.953z" fill="#7e8984" opacity=".61"/><path d="m383.82 178.589 3.21-5.81h.04l-3.25 5.882z" fill="#7c8985" opacity=".61"/><path d="m383.82 178.517 3.171-5.738h.039l-3.21 5.81z" fill="#7b8a86" opacity=".61"/><path d="m383.82 178.446 3.132-5.667h.039l-3.171 5.738z" fill="#798a87" opacity=".61"/><path d="m383.82 178.374 3.092-5.595h.04l-3.132 5.667z" fill="#788a88" opacity=".61"/><path d="m383.82 178.303 3.053-5.524h.039l-3.092 5.595z" fill="#758a87" opacity=".61"/><path d="m383.82 178.231 3.013-5.452h.04l-3.053 5.524z" fill="#748b89" opacity=".61"/><path d="m383.82 178.16 2.973-5.381h.04l-3.013 5.452z" fill="#728b88" opacity=".61"/><path d="m383.82 178.088 2.933-5.309h.04l-2.973 5.381z" fill="#728c89" opacity=".61"/><path d="m383.82 178.017 2.894-5.238h.039l-2.933 5.309z" fill="#708c8b" opacity=".61"/><path d="m383.82 177.945 2.854-5.166h.04l-2.894 5.238z" fill="#6e8c8b" opacity=".61"/><path d="m383.82 177.874 2.815-5.095h.039l-2.854 5.166z" fill="#6c8d8c" opacity=".61"/><path d="m383.82 177.802 2.775-5.023h.04l-2.815 5.095z" fill="#6a8d8d" opacity=".61"/><path d="m383.82 177.731 2.736-4.952h.039l-2.775 5.023z" fill="#698d8d" opacity=".61"/><path d="m383.82 177.659 2.696-4.88h.04l-2.736 4.952z" fill="#688d8e" opacity=".61"/><path d="m383.82 177.588 2.657-4.809h.039l-2.696 4.88z" fill="#658e8e" opacity=".61"/><path d="m383.82 177.516 2.618-4.737h.039l-2.657 4.809z" fill="#648f90" opacity=".61"/><path d="m383.82 177.445 2.578-4.666h.04l-2.618 4.737z" fill="#638f91" opacity=".61"/><path d="m383.82 177.373 2.539-4.594h.039l-2.578 4.666z" fill="#619090" opacity=".61"/><path d="m383.82 177.302 2.499-4.523h.04l-2.539 4.594z" fill="#5d9092" opacity=".61"/><path d="m383.82 177.23 2.46-4.451h.039l-2.499 4.523z" fill="#5c9091" opacity=".61"/><path d="m383.82 177.158 2.42-4.379h.04l-2.46 4.451z" fill="#5a9192" opacity=".61"/><path d="m383.82 177.087 2.381-4.308h.039l-2.42 4.379z" fill="#599193" opacity=".61"/><path d="m383.82 177.016 2.341-4.237h.04l-2.381 4.308z" fill="#569193" opacity=".61"/><path d="m383.82 176.944 2.302-4.165h.039l-2.341 4.237z" fill="#549295" opacity=".61"/><path d="m383.82 176.872 2.262-4.093h.04l-2.302 4.165z" fill="#529296" opacity=".61"/><path d="m383.82 176.801 2.223-4.022h.039l-2.262 4.093z" fill="#4f9296" opacity=".61"/><path d="m383.82 176.73 2.183-3.951h.04l-2.223 4.022z" fill="#4d9397" opacity=".61"/><path d="m383.82 176.658 2.144-3.879h.039l-2.183 3.951z" fill="#4c9398" opacity=".61"/><path d="m383.82 176.586 2.104-3.807h.04l-2.144 3.879z" fill="#4a9398" opacity=".61"/><path d="m383.82 176.515 2.064-3.736h.04l-2.104 3.807z" fill="#479498" opacity=".61"/><path d="m383.82 176.444 2.025-3.665h.039l-2.064 3.736z" fill="#459499" opacity=".61"/><path d="m383.82 176.372 1.985-3.593h.04l-2.025 3.665z" fill="#449499" opacity=".61"/><path d="m383.82 176.3 1.946-3.521h.039l-1.985 3.593z" fill="#40959b" opacity=".61"/><path d="m383.82 176.229 1.906-3.45h.04l-1.946 3.521z" fill="#3d959b" opacity=".61"/><path d="m383.82 176.158 1.867-3.379h.039l-1.906 3.45z" fill="#3b959c" opacity=".61"/><path d="m383.82 176.086 1.827-3.307h.04l-1.867 3.379z" fill="#39969c" opacity=".61"/><path d="m383.82 176.014 1.788-3.235h.039l-1.827 3.307z" fill="#34969d" opacity=".61"/><path d="m383.82 175.943 1.748-3.164h.04l-1.788 3.235z" fill="#31969e" opacity=".61"/><path d="m383.82 175.872 1.709-3.093h.039l-1.748 3.164z" fill="#2e979f" opacity=".61"/><path d="m383.82 175.8 1.669-3.021h.04l-1.709 3.093z" fill="#2b979f" opacity=".61"/><path d="m383.82 175.728 1.63-2.949h.039l-1.669 3.021z" fill="#2a98a0" opacity=".61"/><path d="m383.82 175.657 1.59-2.878h.04l-1.63 2.949z" fill="#2699a1" opacity=".61"/><path d="m383.82 175.586 1.551-2.807h.039l-1.59 2.878z" fill="#1e98a1" opacity=".61"/><path d="m383.82 175.514 1.512-2.735h.039l-1.551 2.807z" fill="#1a98a2" opacity=".61"/><path d="m383.82 175.442 1.472-2.663h.04l-1.512 2.735z" fill="#1799a3" opacity=".61"/><path d="m383.82 175.371 1.433-2.592h.039l-1.472 2.663z" fill="#109aa3" opacity=".61"/><path d="m383.82 175.3 1.393-2.521h.04l-1.433 2.592z" fill="#069aa5" opacity=".61"/><path d="m383.82 175.228 1.354-2.449h.039l-1.393 2.521z" fill="#019ba5" opacity=".61"/><path d="m383.82 175.156 1.314-2.377h.04l-1.354 2.449z" fill="#009ba6" opacity=".61"/><path d="m383.82 175.085 1.275-2.306h.039l-1.314 2.377z" fill="#009ba7" opacity=".61"/><path d="m383.82 175.013 1.235-2.234h.04l-1.275 2.306z" fill="#009ca7" opacity=".61"/><path d="m383.82 174.942 1.196-2.163h.039l-1.235 2.234z" fill="#009ba7" opacity=".61"/><path d="m383.82 174.871 1.155-2.092h.041l-1.196 2.163z" fill="#009ca9" opacity=".61"/><path d="m383.82 174.799 1.116-2.02h.039l-1.155 2.092z" fill="#009ca9" opacity=".61"/><path d="m383.82 174.727 1.077-1.948h.039l-1.116 2.02z" fill="#009ca9" opacity=".61"/><path d="m383.82 174.656 1.037-1.877h.04l-1.077 1.948z" fill="#009caa" opacity=".61"/><path d="m383.82 174.585.998-1.806h.039l-1.037 1.877z" fill="#009eab" opacity=".61"/><path d="m383.82 174.513.958-1.734h.04l-.998 1.806z" fill="#009eab" opacity=".61"/><path d="m383.82 174.441.919-1.662h.039l-.958 1.734z" fill="#009eac" opacity=".61"/><path d="m383.82 174.37.879-1.591h.04l-.919 1.662z" fill="#009fae" opacity=".61"/><path d="m383.82 174.299.84-1.52h.039l-.879 1.591z" fill="#009fae" opacity=".61"/><path d="m383.82 174.227.8-1.448h.04l-.84 1.52z" fill="#009fae" opacity=".61"/><path d="m383.82 174.155.761-1.376h.039l-.8 1.448z" fill="#00a0b0" opacity=".61"/><path d="m383.82 174.083.721-1.304h.04l-.761 1.376z" fill="#00a0b1" opacity=".61"/><path d="m383.82 174.013.682-1.234h.039l-.721 1.304z" fill="#00a1b0" opacity=".61"/><path d="m383.82 173.941.642-1.162h.04l-.682 1.234z" fill="#00a1b2" opacity=".61"/><path d="m383.82 173.869.603-1.09h.039l-.642 1.162z" fill="#00a1b2" opacity=".61"/><path d="m383.82 173.798.563-1.019h.04l-.603 1.09z" fill="#00a2b2" opacity=".61"/><path d="m383.82 173.727.524-.948h.039l-.563 1.019z" fill="#00a2b4" opacity=".61"/><path d="m383.82 173.655.484-.876h.04l-.524.948z" fill="#00a2b5" opacity=".61"/><path d="m383.82 173.583.445-.804h.039l-.484.876z" fill="#00a3b6" opacity=".61"/><path d="m383.82 173.512.405-.733h.04l-.445.804z" fill="#00a3b6" opacity=".61"/><path d="m383.82 173.441.366-.662h.039l-.405.733z" fill="#00a3b7" opacity=".61"/><path d="m383.82 173.369.327-.59h.039l-.366.662z" fill="#00a5b8" opacity=".61"/><path d="m383.82 173.297.287-.518h.04l-.327.59z" fill="#00a4b8" opacity=".61"/><path d="m383.82 173.226.247-.447h.04l-.287.518z" fill="#00a6b9" opacity=".61"/><path d="m383.82 173.155.207-.376h.04l-.247.447z" fill="#00a6ba" opacity=".61"/><path d="m383.82 173.083.168-.304h.039l-.207.376z" fill="#00a5bb" opacity=".61"/><path d="m383.82 173.011.128-.232h.04l-.168.304z" fill="#00a6bb" opacity=".61"/><path d="m383.82 172.94.089-.161h.039l-.128.232z" fill="#00a7bc" opacity=".61"/><path d="m383.909 172.779-.089.161v-.161z" fill="#00a7bc" opacity=".61"/></g></g><path d="m579.374 220.801c-.373 0-.74-.184-.956-.524-26.56-41.455-64.412-74.112-109.46-94.434-.572-.258-.826-.932-.568-1.503.257-.575.932-.823 1.503-.568 45.45 20.503 83.64 53.451 110.437 95.28.34.527.186 1.231-.343 1.568-.19.121-.403.181-.613.181z" fill="#125bc9" opacity=".008"/><path d="m806.408 187.588c-.21 0-.379-.168-.379-.378v-186.347991c0-.21025.169-.378611.379-.378611s.379.168361.379.378611v186.347991c0 .21-.169.378-.379.378z" fill="#125bc9" opacity=".0484"/><path d="m805.992 190.997c3.347 0 6.06-2.713 6.06-6.06s-2.713-6.06-6.06-6.06-6.06 2.713-6.06 6.06 2.713 6.06 6.06 6.06z" fill="#fff"/><path d="m805.992 191.377c-3.551 0-6.439-2.888-6.439-6.439s2.888-6.439 6.439-6.439c3.55 0 6.438 2.888 6.438 6.439s-2.888 6.439-6.438 6.439zm0-12.121c-3.134 0-5.682 2.548-5.682 5.682 0 3.133 2.548 5.681 5.682 5.681 3.133 0 5.681-2.548 5.681-5.681 0-3.134-2.548-5.682-5.681-5.682z" fill="#125bc9"/><path d="m806.748 53.8865c1.674 0 3.03-1.3564 3.03-3.0297 0-1.6732-1.356-3.0297-3.03-3.0297-1.673 0-3.029 1.3565-3.029 3.0297 0 1.6733 1.356 3.0297 3.029 3.0297z" fill="#fff"/><path d="m806.749 54.2665c-1.879 0-3.409-1.5298-3.409-3.4092 0-1.8793 1.53-3.4091 3.409-3.4091s3.409 1.5298 3.409 3.4091c0 1.8794-1.53 3.4092-3.409 3.4092zm0-6.0602c-1.462 0-2.651 1.1898-2.651 2.651 0 1.4613 1.19 2.6511 2.651 2.6511 1.462 0 2.651-1.1898 2.651-2.6511 0-1.4612-1.189-2.651-2.651-2.651z" fill="#125bc9"/><path d="m805.991 121.305c1.673 0 3.029-1.356 3.029-3.029s-1.356-3.03-3.029-3.03c-1.674 0-3.03 1.357-3.03 3.03s1.356 3.029 3.03 3.029z" fill="#fff"/><path d="m805.991 121.685c-1.879 0-3.409-1.529-3.409-3.409 0-1.879 1.53-3.409 3.409-3.409s3.409 1.53 3.409 3.409c-.001 1.88-1.53 3.409-3.409 3.409zm0-6.06c-1.462 0-2.651 1.19-2.651 2.651 0 1.462 1.19 2.651 2.651 2.651 1.462 0 2.651-1.189 2.651-2.651 0-1.461-1.19-2.651-2.651-2.651z" fill="#125bc9"/><path d="m109.823 509.152c1.924 0 3.485-1.56 3.485-3.485 0-1.924-1.561-3.484-3.485-3.484-1.925 0-3.485 1.56-3.485 3.484 0 1.925 1.56 3.485 3.485 3.485z" fill="#ec6348"/><path d="m540.084 136.456c1.925 0 3.485-1.56 3.485-3.485 0-1.924-1.56-3.485-3.485-3.485-1.924 0-3.484 1.561-3.484 3.485 0 1.925 1.56 3.485 3.484 3.485z" fill="#ec6348"/><path d="m131.03 509.152c1.924 0 3.485-1.56 3.485-3.485 0-1.924-1.561-3.484-3.485-3.484-1.925 0-3.485 1.56-3.485 3.484 0 1.925 1.56 3.485 3.485 3.485z" fill="#1f5eaa"/><path d="m555.235 148.577c1.924 0 3.485-1.56 3.485-3.485 0-1.924-1.561-3.485-3.485-3.485-1.925 0-3.485 1.561-3.485 3.485 0 1.925 1.56 3.485 3.485 3.485z" fill="#1f5eaa"/><path d="m149.211 509.152c1.925 0 3.485-1.56 3.485-3.485 0-1.924-1.56-3.484-3.485-3.484-1.924 0-3.484 1.56-3.484 3.484 0 1.925 1.56 3.485 3.484 3.485z" fill="#00a7bc"/><path d="m524.936 127.367c1.925 0 3.485-1.56 3.485-3.485 0-1.924-1.56-3.485-3.485-3.485s-3.485 1.561-3.485 3.485c0 1.925 1.56 3.485 3.485 3.485z" fill="#00a7bc"/><path d="m869.289 297.768h-128.493c-.184 0-.331-.168-.331-.379 0-.21.147-.378.331-.378h128.493c.184 0 .331.168.331.378 0 .211-.147.379-.331.379z" fill="#125bc9" opacity=".0484"/><path d="m837.805 300.078c1.673 0 3.03-1.356 3.03-3.03 0-1.673-1.357-3.029-3.03-3.029s-3.03 1.356-3.03 3.029c0 1.674 1.357 3.03 3.03 3.03z" fill="#fff"/><path d="m837.806 300.458c-1.88 0-3.41-1.53-3.41-3.409 0-1.88 1.53-3.409 3.41-3.409 1.879 0 3.409 1.529 3.409 3.409 0 1.879-1.531 3.409-3.409 3.409zm0-6.06c-1.462 0-2.651 1.189-2.651 2.651s1.189 2.651 2.651 2.651c1.461 0 2.651-1.19 2.651-2.651 0-1.462-1.19-2.651-2.651-2.651z" fill="#125bc9"/><path d="m740.843 303.109c3.347 0 6.061-2.714 6.061-6.061 0-3.346-2.714-6.06-6.061-6.06s-6.06 2.714-6.06 6.06c0 3.347 2.713 6.061 6.06 6.061z" fill="#fff"/><path d="m740.843 303.488c-3.551 0-6.439-2.888-6.439-6.439s2.888-6.439 6.439-6.439 6.439 2.888 6.439 6.439-2.888 6.439-6.439 6.439zm0-12.12c-3.134 0-5.681 2.548-5.681 5.681 0 3.134 2.547 5.682 5.681 5.682s5.682-2.548 5.682-5.682-2.548-5.681-5.682-5.681z" fill="#125bc9"/><path d="m146.198 97.7846h-144.68462c-.21025 0-.37861-.1684-.37861-.3787 0-.2102.16836-.3786.37861-.3786h144.68462c.21 0 .378.1684.378.3786 0 .2095-.168.3787-.378.3787z" fill="#125bc9" opacity=".0484"/><path d="m51.5121 100.096c1.6733 0 3.0297-1.3569 3.0297-3.0302 0-1.6732-1.3564-3.0297-3.0297-3.0297-1.6732 0-3.0297 1.3565-3.0297 3.0297 0 1.6733 1.3565 3.0302 3.0297 3.0302z" fill="#fff"/><path d="m51.5126 100.475c-1.8793 0-3.4091-1.5293-3.4091-3.4087 0-1.8793 1.5298-3.4091 3.4091-3.4091 1.8794 0 3.4091 1.5298 3.4091 3.4091 0 1.8794-1.5297 3.4087-3.4091 3.4087zm0-6.0597c-1.4621 0-2.6511 1.1898-2.6511 2.651 0 1.4621 1.1898 2.6511 2.6511 2.6511 1.4621 0 2.6511-1.1898 2.6511-2.6511.0008-1.4612-1.189-2.651-2.6511-2.651z" fill="#125bc9"/><path d="m145.441 103.125c3.347 0 6.06-2.713 6.06-6.0599 0-3.347-2.713-6.0602-6.06-6.0602s-6.06 2.7132-6.06 6.0602c0 3.3469 2.713 6.0599 6.06 6.0599z" fill="#fff"/><g fill="#125bc9"><path d="m145.443 103.505c-3.551 0-6.439-2.888-6.439-6.4392 0-3.5509 2.888-6.4388 6.439-6.4388s6.439 2.8879 6.439 6.4388c0 3.5512-2.889 6.4392-6.439 6.4392zm0-12.12c-3.134 0-5.682 2.548-5.682 5.6816 0 3.1334 2.548 5.6814 5.682 5.6814 3.133 0 5.681-2.548 5.681-5.6814-.001-3.1344-2.548-5.6816-5.681-5.6816z"/><path d="m78.779 243.226h-77.26562c-.21025 0-.37861-.168-.37861-.379 0-.21.16836-.378.37861-.378h77.26562c.2103 0 .3787.168.3787.378 0 .211-.1684.379-.3787.379z" opacity=".0484"/><path d="m78.7816 245.538c1.6733 0 3.0297-1.357 3.0297-3.03s-1.3564-3.029-3.0297-3.029c-1.6732 0-3.0296 1.356-3.0296 3.029s1.3564 3.03 3.0296 3.03z"/><path d="m471.174 130.398c2.51 0 4.545-2.035 4.545-4.545 0-2.511-2.035-4.545-4.545-4.545s-4.545 2.034-4.545 4.545c0 2.51 2.035 4.545 4.545 4.545z"/><path d="m412.798 444.247c-.159.156-.239.387-.189.623 5.962 28.778 3.432 58.512-7.316 85.984-.136.348.036.743.385.879.349.138.741-.038.879-.385 10.844-27.717 13.395-57.716 7.379-86.753-.075-.366-.434-.603-.8-.526-.133.027-.248.091-.338.178z" opacity=".008"/><path d="m406.235 532.638c1.498 0 2.713-1.215 2.713-2.713s-1.215-2.713-2.713-2.713c-1.499 0-2.714 1.215-2.714 2.713s1.215 2.713 2.714 2.713z"/><path d="m66.6606 418.25c1.6732 0 3.0297-1.357 3.0297-3.03s-1.3565-3.03-3.0297-3.03c-1.6733 0-3.0297 1.357-3.0297 3.03s1.3564 3.03 3.0297 3.03z"/><path d="m67.44 522.915h-65.92662c-.21025 0-.37861-.169-.37861-.379s.16836-.378.37861-.378h65.16942v-106.194c0-.211.1684-.379.3786-.379.2103 0 .3786.168.3786.379z" opacity=".0484"/><path d="m828.713 418.25c1.674 0 3.03-1.357 3.03-3.03s-1.356-3.03-3.03-3.03c-1.673 0-3.029 1.357-3.029 3.03s1.356 3.03 3.029 3.03z"/><path d="m869.62 522.915h-41.686v-106.951c0-.211.168-.379.378-.379s.379.168.379.379v106.193h40.929c.211 0 .379.168.379.378 0 .211-.168.38-.379.38z" opacity=".0484"/><path d="m591.112 53.3836c1.673 0 3.029-1.3564 3.029-3.0297 0-1.6732-1.356-3.0297-3.029-3.0297s-3.03 1.3565-3.03 3.0297c0 1.6733 1.357 3.0297 3.03 3.0297z"/><path d="m483.418 9.44697v41.68673h106.951c.21 0 .379-.1684.379-.3786 0-.2103-.169-.3787-.379-.3787h-106.194v-40.92943c0-.21025-.168-.37861-.378-.37861-.211 0-.379.16836-.379.37861z" opacity=".0484"/></g><path d="m335.695 474.684h-68.415c-3.699 0-6.698-2.999-6.698-6.698v-.239c0-3.699 2.999-6.698 6.698-6.698h68.415c3.699 0 6.698 2.999 6.698 6.698v.239c0 3.7-2.999 6.698-6.698 6.698z" fill="#f5aaa2"/><path d="m302.365 474.684h-35.085c-3.699 0-6.698-2.999-6.698-6.698v-.239c0-3.699 2.999-6.698 6.698-6.698h35.085c3.7 0 6.699 2.999 6.699 6.698v.239c0 3.7-2.999 6.698-6.699 6.698z" fill="#ec6348"/><path d="m317.018 326.59h-24.998c-2.301 0-4.166-1.865-4.166-4.166s1.865-4.166 4.166-4.166h24.998c2.301 0 4.166 1.865 4.166 4.166 0 2.302-1.865 4.166-4.166 4.166z" fill="#00a7bc"/><path d="m695.774 472.034h-24.998c-2.301 0-4.167-1.866-4.167-4.166 0-2.301 1.866-4.167 4.167-4.167h24.998c2.3 0 4.166 1.866 4.166 4.167 0 2.3-1.866 4.166-4.166 4.166z" fill="#1f5eaa"/><path d="m673.427 309.547h-46.965c-6.275 0-11.362-5.087-11.362-11.362 0-6.276 5.087-11.363 11.362-11.363h46.965c6.276 0 11.363 5.087 11.363 11.363.001 6.275-5.086 11.362-11.363 11.362z" fill="#283343"/><path d="m304.519 475.822c4.184 0 7.575-3.392 7.575-7.576 0-4.183-3.391-7.575-7.575-7.575s-7.576 3.392-7.576 7.575c0 4.184 3.392 7.576 7.576 7.576z" fill="#fff"/><path d="m671.154 306.139c4.183 0 7.575-3.391 7.575-7.575s-3.392-7.576-7.575-7.576c-4.184 0-7.576 3.392-7.576 7.576s3.392 7.575 7.576 7.575z" fill="#fff"/><path d="m315.401 57.676h-71.481c-.837 0-1.516-.6783-1.516-1.5152 0-.837.679-1.5153 1.516-1.5153h71.481c.837 0 1.516.6783 1.516 1.5153-.001.8369-.68 1.5152-1.516 1.5152z" fill="#f4a5a0"/><path d="m242.403 59.1902c1.673 0 3.029-1.3564 3.029-3.0297 0-1.6732-1.356-3.0296-3.029-3.0296-1.674 0-3.03 1.3564-3.03 3.0296 0 1.6733 1.356 3.0297 3.03 3.0297z" fill="#ec6348"/><path d="m269.673 57.676c.837 0 1.516-.6784 1.516-1.5152 0-.8369-.679-1.5153-1.516-1.5153-.836 0-1.515.6784-1.515 1.5153 0 .8368.679 1.5152 1.515 1.5152z" fill="#ec6348"/><path d="m299.974 57.676c.837 0 1.515-.6784 1.515-1.5152 0-.8369-.678-1.5153-1.515-1.5153s-1.515.6784-1.515 1.5153c0 .8368.678 1.5152 1.515 1.5152z" fill="#d02e17"/><path d="m157.133 442.78c-2.773 0-5.525-.665-8.057-1.979-4.163-2.157-7.238-5.809-8.655-10.276l-28.419-89.552c-2.929-9.23 2.196-19.119 11.422-22.048l135.758-43.081c9.232-2.921 19.121 2.202 22.048 11.425l28.418 89.554c2.927 9.226-2.198 19.115-11.424 22.045l-135.758 43.08c-1.753.557-3.546.832-5.333.832zm107.344-167.001c-1.678 0-3.382.255-5.066.787l-135.757 43.08c-4.279 1.359-7.77 4.3-9.836 8.286-2.062 3.982-2.453 8.534-1.095 12.809l28.419 89.553c1.355 4.279 4.297 7.77 8.282 9.835 3.982 2.066 8.531 2.456 12.81 1.098l135.757-43.08c8.829-2.803 13.733-12.265 10.934-21.092l-28.419-89.555c-2.267-7.146-8.9-11.721-16.029-11.721zm33.63 122.729h.009z" fill="#125bc9" opacity=".16"/><path d="m162.699 432.418c-2.832 0-5.643-.677-8.232-2.018-4.252-2.205-7.392-5.933-8.842-10.501l-28.418-89.555c-1.45-4.566-1.033-9.422 1.169-13.677 2.204-4.255 5.933-7.395 10.501-8.844l135.757-43.08c9.427-3.001 19.53 2.245 22.521 11.673l28.418 89.555c2.989 9.424-2.246 19.527-11.673 22.519l-135.756 43.079c-1.788.568-3.622.849-5.445.849zm107.348-167.001c-1.643 0-3.309.249-4.957.769l-135.757 43.08c-4.179 1.326-7.593 4.202-9.611 8.1-2.018 3.894-2.397 8.341-1.072 12.522l28.419 89.555c1.326 4.179 4.202 7.593 8.096 9.611 3.894 2.021 8.341 2.397 12.522 1.072l135.757-43.081c8.628-2.739 13.422-11.986 10.685-20.618l-28.418-89.554c-2.216-6.985-8.699-11.456-15.664-11.456zm33.626 122.35h.018z" fill="#283343"/><path d="m170.753 319.268c-1.257 0-2.503-.299-3.648-.894-1.888-.979-3.279-2.631-3.921-4.654l-8.356-26.333c-.642-2.024-.459-4.178.518-6.063.979-1.889 2.63-3.279 4.654-3.921l58.944-18.704c4.181-1.332 8.658.991 9.987 5.172l8.356 26.33c1.322 4.181-.998 8.661-5.176 9.986l-58.944 18.704c-.792.253-1.606.377-2.414.377zm50.593-60.184c-.719 0-1.453.109-2.171.337l-58.945 18.705c-1.831.58-3.328 1.84-4.21 3.545-.885 1.707-1.054 3.654-.471 5.486l8.356 26.332c.58 1.831 1.841 3.328 3.546 4.21 1.707.885 3.66 1.056 5.485.471l58.945-18.704c3.781-1.202 5.882-5.253 4.684-9.034l-8.356-26.33c-.974-3.059-3.812-5.018-6.863-5.018zm10.65 40.743h.009z" fill="#125bc9"/><path d="m174.977 309.79c-.879 0-1.749-.211-2.554-.625-1.319-.683-2.293-1.84-2.743-3.257l-5.039-15.881c-.45-1.417-.322-2.927.361-4.246.683-1.32 1.841-2.293 3.257-2.743l47.188-14.975c2.924-.935 6.061.695 6.989 3.622l5.04 15.88c.449 1.417.32 2.927-.364 4.246-.684 1.32-1.841 2.294-3.258 2.743l-47.185 14.973c-.555.177-1.126.263-1.692.263zm42.149-41.232c-.479 0-.967.071-1.447.225l-47.188 14.975c-1.225.388-2.224 1.231-2.813 2.37-.592 1.139-.702 2.441-.314 3.666l5.04 15.881c.387 1.225 1.231 2.225 2.37 2.814 1.139.594 2.447.704 3.666.313l47.185-14.973c1.225-.387 2.224-1.231 2.817-2.37.592-1.139.701-2.444.313-3.666l-5.04-15.88c-.648-2.044-2.548-3.355-4.589-3.355zm6.613 25.635h.009z" fill="#125bc9" opacity=".16"/><path d="m152.358 363.568c-7.089 0-13.688-4.551-15.945-11.661l-12.789-40.3c-.273-.861.203-1.784 1.064-2.057l142.424-45.195c.441-.142.891.104 1.03.532l13.037 41.08c2.787 8.789-2.092 18.204-10.878 20.991l-112.894 35.825c-1.678.533-3.377.785-5.049.785zm115.062-98.45-142.5 45.154c-.465.148-.722.642-.575 1.104l12.789 40.299c2.663 8.391 11.653 13.058 20.042 10.386l112.895-35.825c4.066-1.291 7.383-4.083 9.345-7.868 1.961-3.784 2.332-8.108 1.041-12.17z" fill="#125bc9"/><path d="m213.328 363.153c-.743 0-1.483-.181-2.163-.533-1.122-.58-1.947-1.562-2.326-2.764l-6.229-19.627c-.381-1.201-.272-2.48.308-3.599.58-1.118 1.56-1.943 2.761-2.325l8.759-2.779c2.461-.778 5.133.595 5.924 3.069l6.228 19.63c.784 2.482-.592 5.139-3.071 5.924l-8.759 2.778c-.471.151-.953.226-1.432.226zm2.529-30.33c-.32 0-.642.047-.964.148l-8.756 2.778c-1.683.536-2.619 2.341-2.083 4.021l6.229 19.63c.257.814.819 1.482 1.577 1.876.76.391 1.627.465 2.441.207l8.762-2.778c1.68-.532 2.615-2.338 2.083-4.024l-6.229-19.628c-.432-1.36-1.699-2.23-3.06-2.23z" fill="#283343"/><path d="m700.891 247.876c-3.174 0-6.284-.917-9.008-2.689l-87.645-57.015c-7.661-4.987-9.838-15.275-4.853-22.937l36.532-56.158c4.982-7.659 15.273-9.8441 22.937-4.854l87.645 57.017c7.662 4.987 9.841 15.275 4.854 22.936l-36.533 56.159c-2.414 3.71-6.13 6.258-10.461 7.178-1.154.243-2.314.363-3.468.363zm-51.054-145.614c-5.194 0-10.285 2.54-13.322 7.205l-36.533 56.159c-4.769 7.329-2.684 17.175 4.647 21.947l87.645 57.017c3.546 2.31 7.787 3.101 11.937 2.221 4.144-.878 7.7-3.317 10.011-6.869l36.533-56.158c2.31-3.551 3.099-7.79 2.221-11.934-.877-4.146-3.316-7.7-6.868-10.013l-87.645-57.017c-2.665-1.731-5.66-2.558-8.626-2.558z" fill="#125bc9" opacity=".16"/><path d="m710.064 246.294c-3.244 0-6.421-.937-9.204-2.747l-87.645-57.017c-7.826-5.091-10.053-15.602-4.962-23.433l36.533-56.159c5.096-7.8235 15.607-10.0477 23.434-4.96l87.645 57.019c3.792 2.467 6.396 6.262 7.332 10.687.938 4.426.095 8.953-2.369 12.744l-36.536 56.159c-2.467 3.792-6.261 6.395-10.687 7.331-1.18.253-2.364.376-3.541.376zm-51.056-145.617c-5.074 0-10.054 2.481-13.02 7.044l-36.533 56.159c-2.261 3.47-3.031 7.614-2.174 11.665.858 4.054 3.244 7.527 6.717 9.785l87.645 57.016c3.468 2.261 7.609 3.04 11.666 2.174 4.051-.854 7.524-3.24 9.782-6.714l36.535-56.158c2.26-3.471 3.031-7.614 2.173-11.666-.86-4.051-3.244-7.524-6.717-9.781l-87.645-57.019c-2.603-1.698-5.532-2.505-8.429-2.505z" fill="#283343"/><path d="m723.98 159.189c-1.438 0-2.847-.414-4.079-1.218l-38.022-24.737c-1.682-1.092-2.837-2.774-3.252-4.735-.417-1.964-.042-3.971 1.053-5.65l10.277-15.797c1.092-1.68 2.774-2.834 4.736-3.25 1.969-.405 3.97-.044 5.649 1.054l38.025 24.736c1.679 1.092 2.833 2.774 3.249 4.736.417 1.964.042 3.97-1.053 5.649l-10.277 15.798c-1.092 1.679-2.774 2.833-4.736 3.249-.522.109-1.047.165-1.57.165zm-27.717-54.837c-.472 0-.948.05-1.422.151-1.775.374-3.297 1.419-4.286 2.939l-10.277 15.798c-.989 1.52-1.328 3.333-.95 5.11.375 1.775 1.42 3.298 2.942 4.287l38.022 24.736c1.52.992 3.326 1.328 5.111.95 1.774-.375 3.297-1.42 4.286-2.94l10.277-15.798c.989-1.52 1.327-3.333.949-5.11-.374-1.775-1.419-3.297-2.939-4.286l-38.025-24.737c-1.115-.725-2.389-1.1-3.688-1.1z" fill="#125bc9"/><path d="m722.415 151.325c-1.007 0-1.993-.29-2.856-.852l-30.687-19.964c-1.176-.763-1.984-1.942-2.274-3.314-.291-1.375-.028-2.778.738-3.956l6.083-9.352c.765-1.176 1.942-1.984 3.316-2.274 1.372-.296 2.772-.028 3.954.738l30.687 19.964c2.428 1.579 3.119 4.842 1.537 7.27l-6.082 9.352c-.766 1.176-1.943 1.984-3.317 2.274-.367.078-.733.114-1.099.114zm-24.583-39.112c-.316 0-.634.034-.95.101-1.187.249-2.204.947-2.867 1.964l-6.082 9.352c-.66 1.017-.886 2.229-.634 3.417.249 1.185.947 2.201 1.964 2.863l30.687 19.965c1.02.659 2.233.888 3.415.634 1.187-.249 2.205-.948 2.867-1.964l6.083-9.352c1.364-2.099.768-4.915-1.33-6.281l-30.688-19.964c-.747-.483-1.596-.735-2.465-.735z" fill="#125bc9" opacity=".16"/><path d="m729.956 195.761c-3.023 0-5.985-.872-8.577-2.56l-72.303-47.035c-3.535-2.3-5.963-5.837-6.837-9.964-.871-4.125-.087-8.343 2.213-11.878l16.245-24.9683c.224-.3464.57-.584.972-.6702.4-.0838.816-.008 1.165.2183l96.824 62.9892c.171.109.291.28.333.481.045.207.005.414-.109.59l-16.662 25.613c-2.299 3.535-5.837 5.963-9.963 6.837-1.099.231-2.206.347-3.301.347zm-67.964-96.394c-.059 0-.117.0056-.173.0193-.218.0443-.402.1732-.525.3601l-16.245 24.9686c-2.194 3.372-2.945 7.401-2.11 11.338.833 3.94 3.152 7.317 6.527 9.513l72.303 47.036c3.372 2.194 7.407 2.948 11.338 2.11 3.94-.833 7.317-3.152 9.513-6.527l16.662-25.613-96.841-63.0713c-.135-.0862-.289-.1337-.449-.1337z" fill="#125bc9"/><path d="m682.642 183.393c-.853 0-1.688-.245-2.42-.721l-4.845-3.151c-.997-.651-1.682-1.648-1.928-2.814-.245-1.162-.025-2.353.623-3.353l7.972-12.251c1.344-2.059 4.107-2.643 6.166-1.305l4.843 3.151c.997.651 1.682 1.648 1.927 2.814.246 1.162.025 2.352-.622 3.353l-7.972 12.251c-.651.998-1.648 1.682-2.814 1.928-.307.068-.62.098-.93.098zm3.143-22.883c-.992 0-1.962.483-2.54 1.375l-7.972 12.252c-.911 1.397-.514 3.274.886 4.182l4.845 3.152c.676.444 1.486.59 2.274.425.788-.168 1.467-.632 1.906-1.311l7.972-12.252c.911-1.396.514-3.274-.886-4.182l-4.842-3.151c-.506-.334-1.078-.49-1.643-.49z" fill="#283343"/><path d="m278.582 156.91c-7.514 4.666-14.362 10.696-20.24 17.635-5.272.848-11.211 1.303-17.453 1.303-10.273 0-19.665-1.243-26.846-3.364 4.424-8.332 9.605-16.211 15.513-23.392 3.606-.333 7.394-.515 11.333-.515 16.969 0 31.483 3.425 37.693 8.333z" fill="#00a7bc" opacity=".027"/><g opacity=".7"><path d="m396.143 165.776-9.045 16.565 9.015-16.556z" fill="url(#b)" opacity=".49"/><path d="m387.101 182.327-6.312-6.516c2.398 1.71 4.719 3.469 6.99 5.271.042.049.119.12.19.163 1.344 1.074-.868 1.082-.868 1.082z" fill="url(#c)" opacity=".49"/><path d="m791.963 515.516c-3.788 13.362-9.09 26.725-15.908 39.118h-46.541c2.394-2.697 4.696-5.667 7.06-9.03 16.361-23.059 31.33-59.419 19.179-88.265-7.181-17.119-22.816-27.27-38.33-34.088-5.121-2.242-9.939-3.787-15.272-4.847-1.121-.243-2.303-.334-3.514-.425.06.031.06.031.091.06-.576-.03-2.759-.211-3.698-.272-15.876-.879-31.784-1.212-47.692-1.393-3.242-.031-6.485-.061-9.727-.031-10.181-.091-20.362-.06-30.572-.06-11.788 0-23.574.03-35.361.091-47.207.211-94.385.908-141.624 1.333-10.454.06-20.907.121-31.36.181-50.026.272-98.144-4.999-140.231-37.179-40.026-30.573-67.57-81.296-66.298-134.624.334-14.393 2.485-28.695 6.363-42.299 2-7.182 4.515-14.18 7.485-20.907 1.545-3.515 3.212-6.969 5-10.362 4.424-8.333 9.605-16.211 15.513-23.393 10.121-12.362 22.363-22.755 36.573-30.3 48.632-25.9373 96.78-4.242 138.049 26.603l-40.299-7.968-5.122 9.484 25.058 25.877c-22.361-16.151-50.146-28.422-77.174-25.665-10 1.031-19.483 4.515-28.059 9.787-7.514 4.667-14.362 10.696-20.24 17.635-3.364 3.909-6.423 8.151-9.12 12.575-1.576 2.606-3.03 5.242-4.363 7.969-2.668 5.454-4.879 11.03-6.667 16.605-13.665 43.088-1.06 88.992 28.543 121.565 3.242 3.576 6.635 6.969 10.272 10.151 1.121 1 2.212 1.939 3.364 2.909 36.997 30.694 82.69 31.755 127.14 31.421 12.877-.091 25.725-.212 38.603-.394 18.695-.151 37.33-.363 56.025-.575 52.238-.515 104.901-2.272 157.289-.727 13.151.363 26.302.969 39.391 1.848 29.331 1.969 58.996 15.483 79.054 39.391 22.816 27.177 26.815 64.264 17.12 98.201z" fill="url(#d)" opacity=".49"/></g><path d="m499.895 257.234-39.935 60.176-59.995-22.21-6.303-2.332-12.453-4.606s-20.028-16.726-18.332-24.331c1.698-7.605 9.696-12.15 9.696-12.15l-11.18-10.455-18.393-17.18c-2.333-2.181-4.393-4.666-5.787-7.544-7.484-15.574 9.362-22.726 9.362-22.726-12.453-6.272-15.726-18.362-16.483-26.028-.363-3.818 2.272-7.241 6.091-7.787l51.48-7.514 6.818-3.818 14.939 3.333 12.302 2.728 55.419 25.634 20.241 28.391z" fill="url(#e)"/><path d="m361.381 241.336 11.193 10.443s-8.003 4.552-9.682 12.154c-1.707 7.602 18.317 24.328 18.317 24.328l18.764 6.938-23.269-99.259-13.251-4.134z" fill="#283343" opacity=".36"/><path d="m465.024 236.354c-.456 0-.909-.204-1.205-.598-14.09-18.497-46.006-24.501-46.329-24.557l-71.233-15.851c-.816-.184-1.331-.992-1.151-1.808.181-.817.989-1.323 1.808-1.151l71.176 15.839c1.3.237 33.331 6.25 48.138 25.694.509.665.379 1.616-.287 2.122-.273.209-.595.31-.917.31z" fill="#003f5b" opacity=".25"/><path d="m668.183 554.602h-231.829c6.03-48.481 5.064-92.308-.03-124.232-3.799-23.807-23.88-39.799-26.21-44.329-.818-1.576-1.636-3.182-2.333-4.788-.06-.091-.091-.151-.121-.242-.182-.334-.364-.667-.515-1-.151-.334-.333-.667-.485-1-.333-.757-.666-1.515-1-2.242-14.877-32.997-18.847-64.994-18.847-64.994l-5.575-23.483-.03-.031-8.606-36.481-7.727-32.603s-1.424-5.728-2.03-12.696v-.091c-.273-2.879-.364-5.939-.182-8.939.091-1.878.334-3.667.788-5.424v-.242c1.424-6.151 4.969-10.696 12.423-10 15.938 1.485 21.634 7 36.421 26.695 4.484 6 9.757 13.272 16.423 22.12 1.758 2.333 3.485 4.424 5.151 6.332h.03c2.758 3.091 5.364 5.606 7.818 7.605.031.031.091.091.122.091 0 0 .03.031.06.031 2.242 1.818 4.394 3.212 6.393 4.273 8.848 4.575 22.15 8.878 28.543 1.273v-.031c1.06-1.303 1.939-2.879 2.576-4.849 0-.03 0-.06.03-.091 1.212-4.029.757-8.362-.818-12.21 0-.031-.031-.031-.031-.061-.091-.212-.212-.515-.333-.757l-2.212-4.666-2.181-4.605v-.031l-3.394-7.181-2.606-5.515-.817-.606-.819-.576-11.362-8.211-45.572-32.755-1.394-.999-6.06-4.364v-.031l-1.273-.878-3.999-2.879-1.697-1.211-7.181-5.182c-4.242-2.241-7.636-5.09-10.272-8.15-.848-1.031-1.667-2.061-2.394-3.091-.364-.545-.727-1.121-1.03-1.666-1.363-2.272-2.394-4.576-3.061-6.848v-.031c-1.726-5.666-1.424-11.029.607-14.604 1.848-3.333 6-4.636 9.484-3.152 26.028 10.939 110.9 42.724 134.382 60.662 12.514 9.545 27.12 33.845 42.361 66.237v.03c1.848 3.969 3.727 8.029 5.605 12.211v.031c4.666 10.393 9.363 21.452 14.059 32.997v.03c.878 2.151 1.757 4.333 2.636 6.545 4.424 10.969 8.847 22.362 13.211 33.997.363.909.727 1.848 1.06 2.788 8.697 23.301 17.241 47.511 25.392 71.448.788 2.303 1.545 4.606 2.333 6.909 2.757 8.272 5.515 16.483 8.15 24.604.788 2.272 1.516 4.545 2.242 6.787 3.212 9.727 6.272 19.21 9.212 28.482 4.666 14.575 8.999 28.423 12.999 41.27 5.182 16.814 9.758 31.965 13.515 44.6z" fill="url(#f)"/><path d="m343.191 184.733c2.858-1.121 3.6-6.042 1.658-10.99-1.943-4.949-5.834-8.05-8.692-6.929-2.858 1.122-3.6 6.043-1.657 10.991 1.942 4.948 5.833 8.05 8.691 6.928z" fill="#f4f3ee" opacity=".0225"/><path d="m381.403 137.264c2.184-.858 2.751-4.619 1.266-8.401-1.484-3.783-4.459-6.154-6.643-5.297-2.185.858-2.752 4.619-1.267 8.402 1.485 3.782 4.459 6.154 6.644 5.296z" fill="#f4f3ee" opacity=".0225"/><path d="m348.641 208.8c.843-4.504-.791-8.589-3.65-9.124-2.859-.536-5.86 2.681-6.704 7.185-.843 4.504.79 8.59 3.649 9.125 2.859.536 5.861-2.681 6.705-7.186z" fill="#f4f3ee" opacity=".0225"/><path d="m350.641 134.611 20.501 28.254c7.404 9.412 15.414 18.01 24.059 25.797 8.645 7.786 17.898 14.761 27.758 20.923l53.862 40.603 14.653 11.037c15.043 12.168 30.027 23.588 44.86 34.004 14.835 10.39 29.518 19.776 44.093 27.915l6.527 4.913c2.201 1.666 4.793 2.451 7.359 2.433-5.591-14.938-11.237-29.493-16.877-43.332-20.4-18.075-42.475-35.439-66.282-52.039l-68.542-51.643c-16.529-15.026-36.483-27.144-59.16-36.913l-6.024-2.205z" fill="#283343" opacity=".1225"/><path d="m539.142 249.283-5.587-3.39 1.961-3.231c2.887-4.758 1.526-10.908-3.095-14.003l-23.064-15.451c-4.151-2.78-9.139-3.8-14.051-2.861l-13.918 3.887-1.757-6.297 14.186-3.951c6.865-1.323 13.589.048 19.182 3.791l23.063 15.451c7.533 5.044 9.75 15.071 5.042 22.824z" fill="#f5aaa2"/><path d="m478.746 187.968s-12.121 9.09-24.24 9.09" stroke="#003f5b" stroke-linecap="round" stroke-miterlimit="10"/><path d="m448.293 248.932s37.058 16.908 29.967-16.726" stroke="#003f5b" stroke-linecap="round" stroke-miterlimit="10"/><path d="m560.538 280.524-42.244-25.914c-1.155-.709-1.517-2.22-.808-3.376l8.825-14.387c.709-1.155 2.22-1.518 3.376-.809l42.243 25.914c1.155.709 1.518 2.22.809 3.376l-8.826 14.387c-.708 1.155-2.22 1.517-3.375.809z" fill="#283343"/><path d="m478.422 200.331-15.19 24.761c28.685 19.002 56.774 35.296 83.922 47.221l11.392-18.571c-24.287-19.158-50.997-36.97-80.124-53.411z" fill="#f1887a"/><path d="m396.686 184.268 66.546 40.823 15.19-24.762-66.546-40.822z" fill="#ec6348"/><path d="m357.956 132.822-9.493 15.476c14.686 15.399 31.286 27.713 49.77 36.921l15.19-24.761c-15.904-11.887-34.591-20.901-55.467-27.636z" fill="#f1887a"/><path d="m357.958 132.822-9.493 15.476-20.541-23.251z" fill="#283343"/><path d="m478.423 200.331-9.493 15.476 82.022 50.316 7.595-12.38c-24.287-19.159-50.997-36.971-80.124-53.412z" fill="#ec6348" opacity=".59"/><path d="m357.956 132.822-6.645 10.833 52.618 32.279 9.493-15.476c-15.903-11.887-34.59-20.901-55.466-27.636z" fill="#ec6348" opacity=".59"/><path d="m483.552 266.553c-.118 0-.24-.014-.36-.044-.72-.175-17.746-4.407-31.872-12.863-.72-.43-.953-1.359-.521-2.078.43-.719 1.362-.955 2.078-.521 13.727 8.214 30.865 12.478 31.037 12.52.814.198 1.311 1.018 1.11 1.832-.17.692-.788 1.154-1.472 1.154z" fill="#003f5b"/><path d="m397.356 129.266c-3.888 0-8.007-2.101-12.25-6.253-.597-.586-.61-1.544-.023-2.142.586-.601 1.544-.607 2.142-.024 3.607 3.528 7.11 5.389 10.14 5.389h.14c2.722-.053 4.189-1.569 4.252-1.634.574-.603 1.53-.636 2.133-.074.61.566.657 1.509.098 2.122-.092.104-2.311 2.495-6.315 2.612-.106.004-.213.004-.317.004z" fill="#003f5b"/><path d="m446.1 416.017c-.213 0-.432-.045-.637-.142-1.216-.563-29.82-14.032-38.195-35.517-.304-.782.083-1.657.861-1.962.775-.307 1.66.083 1.962.861 7.93 20.344 36.36 33.74 36.647 33.872.757.352 1.086 1.252.734 2.013-.253.549-.801.875-1.372.875z" fill="#003f5b"/><path d="m380.089 219.786c-.719 0-1.432-.118-2.136-.352-6.64-2.222-9.321-14.333-9.602-15.706-.172-.82.355-1.622 1.174-1.79.802-.163 1.622.352 1.79 1.174.678 3.261 3.362 12.032 7.602 13.449 1.634.553 3.427-.077 5.486-1.888 5.125-4.51 7.484-8.409 7.013-11.594-.435-2.914-3.332-5.607-8.617-8.007-.76-.346-1.098-1.243-.751-2.006.348-.757 1.243-1.091 2.005-.751 6.368 2.891 9.757 6.267 10.357 10.32.645 4.326-1.974 9.007-8.008 14.31-2.146 1.892-4.262 2.841-6.313 2.841z" fill="#003f5b"/><path d="m616.956 415.506c20.518-10.777 34.215-25.102 30.594-31.997-3.622-6.894-23.19-3.747-43.708 7.03-20.518 10.776-34.215 25.102-30.594 31.997 3.622 6.894 23.19 3.747 43.708-7.03z" fill="#00a7bc" opacity=".02085136"/><path d="m622.974 340.423.034-.015 3.277 7.382c.858 1.934.288 4.378-1.458 7.121-.079.123-.158.241-.24.365-2.881 4.313-8.597 9.318-16.196 14.189-.102.068-.21.134-.312.203-.718.454-1.456.911-2.205 1.368-.104.063-.21.123-.315.193-4.464 2.677-9.476 5.284-14.869 7.678-14.359 6.375-28.011 9.714-36.935 9.546-.136.002-.271-.003-.405-.008-.725-.02-1.412-.068-2.071-.141-.143-.013-.282-.028-.421-.042-.615-.081-1.197-.182-1.74-.3-.153-.038-.301-.073-.451-.112-.592-.149-1.142-.33-1.644-.537-.173-.07-.34-.149-.502-.224-1.336-.65-2.286-1.53-2.784-2.652l-3.277-7.382.034-.014c-.093-.154-.18-.315-.252-.477-3.137-7.066 12.799-20.998 35.595-31.117 22.795-10.119 43.817-12.595 46.954-5.528.07.159.131.332.183.504z" fill="#fff"/><path d="m554.414 388.836c-.255 0-.509 0-.743-.006-.074 0-.151 0-.23-.003l-.101-.004c-.702-.02-1.388-.067-2.104-.144l-.421-.045c-.627-.08-1.222-.183-1.778-.304l-.172-.041c-.101-.024-.201-.048-.302-.077-.595-.148-1.163-.334-1.687-.55-.136-.057-.269-.115-.399-.177l-.116-.05c-1.45-.708-2.447-1.663-2.974-2.844l-3.427-7.726h.004c-.024-.05-.048-.097-.071-.145-3.27-7.371 12.448-21.258 35.786-31.62 23.337-10.357 44.181-12.701 47.457-5.336.021.048.041.095.058.142h.004l3.432 7.732c.894 2.009.394 4.524-1.485 7.477l-.24.367c-2.909 4.35-8.7 9.425-16.314 14.301-.056.041-.133.089-.207.137l-.1.065c-.725.461-1.465.917-2.214 1.372l-.311.19c-4.607 2.764-9.622 5.356-14.92 7.705-13.569 6.026-27.113 9.584-36.425 9.584zm-.669-.764c.216.003.435.006.657.006 9.226 0 22.651-3.534 36.132-9.52 5.27-2.337 10.256-4.914 14.828-7.657l.311-.186c.751-.459 1.485-.915 2.201-1.367l.104-.068c.066-.041.131-.083.193-.127 7.542-4.83 13.256-9.827 16.103-14.086l.23-.355c1.737-2.728 2.22-5.004 1.436-6.767l-3.125-7.034-.041.021-.16-.396c-.049-.159-.103-.317-.168-.467-3.054-6.853-23.885-4.299-46.456 5.723-22.569 10.019-38.449 23.755-35.402 30.616.068.148.145.296.23.435l.216.364-.077.036 3.125 7.04c.452 1.011 1.328 1.843 2.603 2.465l.11.05c.121.056.245.112.373.165.488.202 1.024.377 1.589.518l.453.113c.523.113 1.098.213 1.696.29l.411.045c.699.074 1.364.118 2.045.139l.1.003c.097.001.182-.002.283.001z" fill="#125bc9"/><path d="m543.648 375.639 5.469 12.321c-.153-.037-.301-.072-.451-.112l-5.354-12.06z" fill="#b2b6c0"/><path d="m546.417 377.354 4.861 10.949c-.143-.014-.282-.029-.421-.043l-4.775-10.757z" fill="#b2b6c0"/><path d="m548.431 376.46 5.324 11.992c-.136.002-.271-.003-.405-.008l-5.254-11.834z" fill="#b2b6c0"/><path d="m598.429 354.265 7.445 16.77c-.104.063-.21.123-.316.193l-7.464-16.814z" fill="#b2b6c0"/><path d="m541.48 374.833 5.54 12.479c-.172-.071-.34-.15-.502-.225l-5.373-12.105z" fill="#b2b6c0"/><path d="m601.113 353.072 7.277 16.392c-.102.068-.21.134-.312.203l-7.301-16.446z" fill="#b2b6c0"/><path d="m617.184 337.693 7.643 17.218c-.078.124-.158.241-.24.366l-7.739-17.435z" fill="#b2b6c0"/><path d="m587.186 371.059c22.795-10.119 38.732-24.049 35.596-31.115-3.137-7.067-24.159-4.592-46.954 5.526-22.796 10.118-38.733 24.049-35.596 31.115 3.136 7.066 24.158 4.592 46.954-5.526z" fill="#fff"/><path d="m550.968 381.006c-5.793 0-9.791-1.397-11.075-4.29-3.27-7.368 12.448-21.255 35.786-31.617 23.337-10.357 44.181-12.701 47.457-5.336 3.269 7.368-12.449 21.255-35.79 31.618-14.17 6.29-27.424 9.625-36.378 9.625zm61.216-44.785c-8.835 0-22.184 3.347-36.198 9.57-22.568 10.019-38.449 23.755-35.401 30.616 3.045 6.862 23.882 4.294 46.454-5.719 22.568-10.02 38.452-23.755 35.405-30.617-1.158-2.601-4.868-3.85-10.26-3.85z" fill="#125bc9"/><path d="m559.372 374.79c-4.338 0-7.155-1.077-8.069-3.14-2.391-5.385 9.007-15.493 25.948-23.015 16.943-7.522 32.084-9.187 34.475-3.808 1.172 2.637-.938 6.498-5.939 10.869-4.891 4.279-11.998 8.59-20.009 12.147-8.01 3.556-15.976 5.932-22.432 6.693-1.438.167-2.764.254-3.974.254zm44.377-32.325c-6.418 0-16.174 2.414-26.191 6.862-15.999 7.105-27.705 17.186-25.562 22.015 1.009 2.276 5.13 3.16 11.261 2.441 6.383-.752 14.272-3.107 22.214-6.634 7.941-3.524 14.981-7.797 19.819-12.025 4.661-4.075 6.753-7.714 5.744-9.99-.802-1.805-3.448-2.669-7.285-2.669z" fill="#125bc9" opacity=".0484"/><path d="m585.734 367.743c-16.841 7.477-31.886 9.158-34.252 3.828-2.366-5.329 8.973-15.36 25.814-22.835 16.841-7.476 31.886-9.158 34.252-3.828 2.366 5.329-8.973 15.36-25.814 22.835zm-8.22-18.515c-16.097 7.146-27.865 17.31-25.697 22.194s17.6 2.975 33.698-4.171c16.097-7.146 27.865-17.31 25.697-22.194-2.168-4.885-17.6-2.975-33.698 4.171z" fill="#b2b6c0" opacity=".017576"/><path d="m293.652 144.098.032.008-1.696 7.136c-.445 1.87-2.202 3.322-4.974 4.342-.124.046-.246.087-.374.132-4.456 1.53-11.34 2-19.511 1.334-.112-.006-.226-.018-.337-.025-.769-.067-1.553-.142-2.345-.225-.111-.012-.22-.028-.335-.035-4.698-.524-9.755-1.398-14.969-2.637-13.882-3.3-25.584-8.403-31.939-13.437-.099-.074-.193-.152-.288-.23-.512-.413-.983-.826-1.419-1.242-.096-.088-.188-.175-.28-.262-.4-.397-.766-.791-1.092-1.175-.09-.112-.178-.218-.264-.329-.346-.435-.644-.867-.893-1.293-.085-.146-.162-.295-.238-.439-.608-1.205-.81-2.364-.552-3.449l1.697-7.136.032.008c.018-.162.043-.327.08-.484 1.624-6.832 20.807-8.123 42.845-2.885 22.039 5.238 38.589 15.022 36.966 21.854-.038.158-.09.316-.146.469z" fill="#fff"/><path d="m273.97 157.72c-2.163 0-4.465-.095-6.87-.29l-.326-.026c-.784-.071-1.571-.145-2.364-.228l-.325-.033c-4.877-.544-9.928-1.435-15.03-2.645-13.445-3.199-25.442-8.247-32.084-13.511-.098-.071-.198-.154-.299-.237-.491-.396-.976-.82-1.432-1.254l-.278-.263c-.423-.418-.799-.82-1.125-1.205l-.269-.334c-.361-.458-.672-.909-.926-1.344-.062-.106-.122-.219-.181-.328l-.065-.119c-.663-1.319-.858-2.568-.586-3.719l1.781-7.484v.004c.009-.045.018-.083.027-.124.829-3.486 5.841-5.709 14.112-6.264 8.125-.554 18.497.547 29.193 3.092 10.694 2.542 20.447 6.226 27.46 10.372 7.137 4.219 10.611 8.46 9.785 11.94-.012.038-.021.077-.032.118h.003l-1.779 7.495c-.465 1.956-2.219 3.506-5.213 4.607l-.373.133c-3.173 1.088-7.59 1.647-12.804 1.647zm-59.811-32.144-1.609 6.785c-.23.971-.057 2.045.518 3.193l.062.112c.053.101.106.202.166.303.237.405.527.825.861 1.251l.263.323c.308.364.669.751 1.065 1.145l.269.251c.45.43.918.838 1.4 1.226.097.083.186.154.278.224 6.569 5.203 18.455 10.2 31.8 13.369 5.069 1.208 10.091 2.092 14.923 2.631.07.006.153.015.233.024l.101.012c.79.083 1.572.157 2.338.221l.331.027c8.096.663 14.975.189 19.358-1.314l.364-.13c2.746-1.01 4.341-2.379 4.741-4.075l1.613-6.779-.048-.012.113-.399c.05-.136.097-.281.133-.423.73-3.084-2.708-7.132-9.433-11.108-6.952-4.11-16.627-7.762-27.253-10.285-10.62-2.531-20.906-3.628-28.966-3.078-7.797.527-12.692 2.595-13.422 5.682-.033.139-.057.287-.075.435l-.044.405z" fill="#125bc9"/><path d="m216.957 125.868-2.831 11.914c-.091-.112-.178-.219-.265-.33l2.771-11.661z" fill="#b2b6c0"/><path d="m218.015 128.634-2.516 10.586c-.096-.088-.188-.176-.28-.263l2.471-10.399z" fill="#b2b6c0"/><path d="m219.962 129.097-2.756 11.594c-.099-.074-.193-.151-.288-.229l2.72-11.442z" fill="#b2b6c0"/><path d="m268.303 140.586-3.853 16.214c-.111-.011-.22-.027-.335-.034l3.864-16.257z" fill="#b2b6c0"/><path d="m215.835 124.096-2.868 12.066c-.085-.146-.163-.295-.238-.44l2.781-11.703z" fill="#b2b6c0"/><path d="m270.898 141.202-3.766 15.848c-.112-.006-.226-.019-.337-.025l3.779-15.9z" fill="#b2b6c0"/><path d="m290.972 138.937-3.956 16.647c-.124.045-.246.087-.373.132l4.006-16.857z" fill="#b2b6c0"/><path d="m293.792 143.624c1.624-6.832-14.926-16.615-36.965-21.853-22.039-5.237-41.221-3.945-42.845 2.887-1.623 6.831 14.927 16.615 36.966 21.852 22.039 5.238 41.221 3.945 42.844-2.886z" fill="#fff"/><path d="m275.876 150.145c-7.107 0-15.76-1.065-25.009-3.261-22.581-5.368-38.944-15.168-37.248-22.311.829-3.48 5.841-5.702 14.111-6.258 8.126-.554 18.498.547 29.194 3.092 10.694 2.542 20.446 6.226 27.46 10.372 7.137 4.219 10.61 8.46 9.785 11.94-1.003 4.215-8.045 6.426-18.293 6.426zm-43.862-31.212c-1.467 0-2.882.045-4.234.136-7.797.527-12.691 2.595-13.422 5.682-1.571 6.616 14.884 16.216 36.686 21.394 21.805 5.187 40.814 4.016 42.385-2.604.734-3.083-2.704-7.131-9.43-11.107-6.952-4.11-16.627-7.762-27.253-10.286-8.838-2.105-17.449-3.215-24.732-3.215z" fill="#125bc9"/><path d="m269.731 145.804c-5.323 0-11.606-.808-18.053-2.338-7.748-1.843-14.813-4.513-19.897-7.519-5.208-3.077-7.74-6.187-7.131-8.753.612-2.566 4.27-4.202 10.306-4.61 5.88-.388 13.401.399 21.154 2.24 7.747 1.843 14.812 4.513 19.896 7.519 5.208 3.077 7.741 6.188 7.132 8.753-.613 2.566-4.271 4.202-10.307 4.61-.987.065-2.026.098-3.1.098zm-31.667-22.563c-1.06 0-2.08.032-3.057.101-5.592.376-9.098 1.843-9.616 4.03-.521 2.181 1.95 5.069 6.776 7.924 5.022 2.968 12.013 5.608 19.689 7.431 7.676 1.825 15.106 2.627 20.926 2.222 5.592-.376 9.099-1.843 9.617-4.03.521-2.181-1.95-5.069-6.776-7.924-5.022-2.968-12.014-5.608-19.69-7.431-6.389-1.521-12.608-2.323-17.869-2.323z" fill="#125bc9" opacity=".0484"/><path d="m251.71 143.335c-16.282-3.87-28.078-10.937-26.853-16.09 1.224-5.152 14.938-6.156 31.22-2.287 16.282 3.87 28.078 10.937 26.852 16.089-1.223 5.153-14.936 6.158-31.219 2.288zm4.255-17.901c-15.563-3.699-29.661-2.834-30.783 1.889s11.078 11.837 26.642 15.537c15.563 3.699 29.66 2.833 30.782-1.889 1.122-4.723-11.078-11.838-26.641-15.537z" fill="#b2b6c0" opacity=".017576"/></svg>