<svg width="344" height="369" viewBox="0 0 344 369" fill="none" xmlns="http://www.w3.org/2000/svg">
<g filter="url(#filter0_d)">
<rect x="92" y="4" width="192" height="240" rx="8" fill="white"/>
<path d="M111.3 32H113.344L114.142 29.844H118.286L119.084 32H121.17L117.404 21.948H115.052L111.3 32ZM117.628 28.094H114.786L116.2 24.23L117.628 28.094ZM124.955 26.134C125.697 26.134 126.229 26.61 126.439 27.45L128.105 26.666C127.713 25.364 126.509 24.496 124.941 24.496C123.877 24.496 122.939 24.874 122.281 25.588C121.623 26.274 121.287 27.24 121.287 28.318C121.287 29.396 121.623 30.362 122.281 31.048C122.939 31.776 123.877 32.154 124.941 32.154C125.739 32.154 126.411 31.958 126.985 31.552C127.559 31.146 127.951 30.6 128.133 29.942L126.439 29.186C126.229 30.026 125.697 30.502 124.955 30.502C123.891 30.502 123.233 29.676 123.233 28.318C123.233 26.974 123.891 26.134 124.955 26.134ZM131.568 32.084C132.03 32.084 132.45 32.042 132.828 31.972V30.348C132.492 30.39 132.38 30.39 132.156 30.39C131.428 30.39 131.232 30.194 131.232 29.676V26.274H132.73V24.636H131.232V22.536H129.3V24.636H128.32V26.274H129.3V30.082C129.3 31.482 129.958 32.084 131.568 32.084ZM135.973 23.768V21.948H133.971V23.768H135.973ZM133.999 24.636V32H135.959V24.636H133.999ZM144.063 24.636H142.089L140.451 29.62L138.799 24.636H136.769L139.443 32H141.403L144.063 24.636ZM146.869 23.768V21.948H144.867V23.768H146.869ZM144.895 24.636V32H146.855V24.636H144.895ZM150.927 32.084C151.389 32.084 151.809 32.042 152.187 31.972V30.348C151.851 30.39 151.739 30.39 151.515 30.39C150.787 30.39 150.591 30.194 150.591 29.676V26.274H152.089V24.636H150.591V22.536H148.659V24.636H147.679V26.274H148.659V30.082C148.659 31.482 149.317 32.084 150.927 32.084ZM155.332 23.768V21.948H153.33V23.768H155.332ZM153.358 24.636V32H155.318V24.636H153.358ZM160.146 32.154C161.658 32.154 162.876 31.356 163.394 30.054L161.742 29.466C161.518 30.152 160.944 30.544 160.16 30.544C159.194 30.544 158.494 29.872 158.368 28.752H163.436V28.178C163.436 27.072 163.128 26.19 162.526 25.518C161.924 24.832 161.098 24.496 160.076 24.496C159.054 24.496 158.13 24.902 157.472 25.63C156.842 26.316 156.492 27.268 156.492 28.318C156.492 29.424 156.842 30.376 157.472 31.062C158.13 31.776 159.068 32.154 160.146 32.154ZM160.062 26.064C160.916 26.064 161.476 26.596 161.49 27.422H158.438C158.662 26.54 159.264 26.064 160.062 26.064ZM167.284 32.154C168.208 32.154 168.964 31.93 169.566 31.468C170.168 31.006 170.476 30.404 170.476 29.662C170.476 28.92 170.168 28.374 169.552 28.024C169.37 27.926 169.146 27.828 168.894 27.744C168.642 27.66 168.236 27.562 167.662 27.436C167.06 27.324 166.962 27.296 166.808 27.24C166.416 27.128 166.262 26.974 166.262 26.694C166.262 26.288 166.668 26.022 167.284 26.022C168.054 26.022 168.768 26.372 169.258 27.002L170.378 25.77C169.776 25 168.586 24.496 167.34 24.496C166.458 24.496 165.73 24.72 165.17 25.168C164.61 25.602 164.33 26.176 164.33 26.89C164.33 27.604 164.596 28.108 165.114 28.444C165.464 28.668 165.884 28.836 166.836 29.018L167.62 29.172C167.718 29.186 167.788 29.214 167.858 29.228C168.376 29.354 168.558 29.536 168.558 29.872C168.558 30.334 168.096 30.628 167.326 30.628C166.486 30.628 165.604 30.18 165.1 29.508L163.882 30.754C164.512 31.608 165.87 32.154 167.284 32.154Z" fill="#959595"/>
<line x1="92" y1="46.7" x2="284" y2="46.6999" stroke="#F9F9F9"/>
<circle cx="117.6" cy="72.8" r="12.8" fill="#F7F9FE"/>
<rect x="139.2" y="65.6001" width="80" height="6.4" rx="2" fill="#F7F9FE"/>
<path d="M249.717 76.236C250.257 77.256 251.397 77.94 252.777 78.072V79.224H253.653V78.06C254.457 77.976 255.093 77.7 255.585 77.232C256.077 76.764 256.329 76.188 256.329 75.504C256.329 74.748 256.065 74.184 255.501 73.8C255.105 73.524 254.613 73.332 253.653 73.14V70.284C254.433 70.428 255.045 70.896 255.441 71.664L256.269 70.968C255.825 70.056 254.865 69.468 253.653 69.324V68.172H252.777V69.312C251.997 69.372 251.361 69.636 250.869 70.08C250.377 70.524 250.125 71.088 250.125 71.748C250.125 72.468 250.389 72.996 250.965 73.38C251.349 73.62 251.817 73.8 252.777 74.004V77.088C251.805 76.98 251.061 76.44 250.581 75.516L249.717 76.236ZM251.181 71.676C251.181 70.908 251.817 70.356 252.777 70.26V72.948C251.613 72.696 251.181 72.312 251.181 71.676ZM255.273 75.576C255.273 76.404 254.673 76.956 253.653 77.088V74.196C254.841 74.484 255.273 74.892 255.273 75.576ZM256.978 78H262.906V76.992H258.55L260.494 75.408C261.334 74.724 261.922 74.124 262.246 73.608C262.57 73.08 262.738 72.528 262.738 71.94C262.738 71.136 262.474 70.488 261.958 69.996C261.442 69.504 260.746 69.252 259.894 69.252C259.126 69.252 258.43 69.528 257.902 70.008C257.362 70.5 257.05 71.196 257.05 71.952C257.05 72.276 257.098 72.564 257.242 72.948H258.322C258.19 72.624 258.13 72.312 258.13 72.012C258.13 71.508 258.298 71.088 258.622 70.752C258.946 70.404 259.366 70.236 259.87 70.236C260.914 70.236 261.61 70.944 261.61 72.012C261.61 72.576 261.382 73.104 260.89 73.68C260.602 74.016 260.242 74.352 259.522 74.94L256.978 77.052V78ZM266.672 73.26C267.2 73.26 267.632 73.452 267.98 73.824C268.328 74.196 268.508 74.664 268.508 75.228C268.508 75.78 268.316 76.248 267.944 76.62C267.572 76.992 267.116 77.172 266.576 77.172C265.52 77.172 264.764 76.476 264.584 75.36L263.48 75.588C263.768 77.184 264.932 78.132 266.576 78.132C267.392 78.132 268.148 77.832 268.712 77.304C269.276 76.764 269.588 76.008 269.588 75.204C269.588 74.4 269.312 73.68 268.832 73.152C268.316 72.612 267.62 72.324 266.804 72.324C266.132 72.324 265.52 72.564 265.088 72.996L265.316 70.392H269.12V69.384H264.428L264.056 73.812L265.112 73.992C265.436 73.548 266.012 73.26 266.672 73.26Z" fill="#CCD7E7"/>
<rect x="139.2" y="78.3999" width="20.8" height="1.6" rx="0.5" fill="#F0F0F0"/>
<circle cx="117.6" cy="111.2" r="12.8" fill="#F7F9FE"/>
<rect x="139.2" y="104" width="61.6" height="6.4" rx="2" fill="#F7F9FE"/>
<path d="M246.818 114.236C247.358 115.256 248.498 115.94 249.878 116.072V117.224H250.754V116.06C251.558 115.976 252.194 115.7 252.686 115.232C253.178 114.764 253.43 114.188 253.43 113.504C253.43 112.748 253.166 112.184 252.602 111.8C252.206 111.524 251.714 111.332 250.754 111.14V108.284C251.534 108.428 252.146 108.896 252.542 109.664L253.37 108.968C252.926 108.056 251.966 107.468 250.754 107.324V106.172H249.878V107.312C249.098 107.372 248.462 107.636 247.97 108.08C247.478 108.524 247.226 109.088 247.226 109.748C247.226 110.468 247.49 110.996 248.066 111.38C248.45 111.62 248.918 111.8 249.878 112.004V115.088C248.906 114.98 248.162 114.44 247.682 113.516L246.818 114.236ZM248.282 109.676C248.282 108.908 248.918 108.356 249.878 108.26V110.948C248.714 110.696 248.282 110.312 248.282 109.676ZM252.374 113.576C252.374 114.404 251.774 114.956 250.754 115.088V112.196C251.942 112.484 252.374 112.892 252.374 113.576ZM259.154 113.756H260.834V112.796H259.166V107.384H257.702L253.922 112.856V113.756H258.086V116H259.154V113.756ZM258.074 108.488V112.796H255.098L258.074 108.488ZM263.062 107.336C262.978 108.344 262.63 108.692 261.622 108.752L260.698 108.812V109.664H262.774V116H263.926V107.336H263.062ZM268.102 116.132C269.194 116.132 270.13 115.604 270.754 114.644C271.27 113.84 271.546 112.796 271.546 111.608C271.546 110.276 271.258 109.208 270.694 108.428C270.13 107.648 269.35 107.252 268.342 107.252C267.526 107.252 266.758 107.564 266.218 108.104C265.654 108.644 265.354 109.4 265.354 110.216C265.354 110.996 265.63 111.716 266.146 112.244C266.674 112.784 267.382 113.084 268.162 113.084C269.17 113.084 270.058 112.556 270.49 111.728V111.848C270.49 112.7 270.31 113.456 269.962 114.032C269.542 114.764 268.87 115.172 268.138 115.172C267.226 115.172 266.602 114.668 266.326 113.744L265.378 114.14C265.774 115.436 266.722 116.132 268.102 116.132ZM268.342 108.2C268.894 108.2 269.35 108.392 269.722 108.764C270.094 109.136 270.274 109.604 270.274 110.156C270.274 110.708 270.082 111.176 269.71 111.56C269.338 111.944 268.87 112.136 268.33 112.136C267.79 112.136 267.334 111.944 266.962 111.572C266.59 111.188 266.41 110.72 266.41 110.156C266.41 109.604 266.59 109.136 266.962 108.764C267.334 108.392 267.79 108.2 268.342 108.2Z" fill="#CCD7E7"/>
<rect x="139.2" y="116.8" width="52.8" height="1.6" rx="0.5" fill="#F0F0F0"/>
<circle cx="117.6" cy="149.6" r="12.8" fill="#F7F9FE"/>
<rect x="139.2" y="142.4" width="99.2" height="6.4" rx="2" fill="#F7F9FE"/>
<path d="M253.302 152.236C253.842 153.256 254.982 153.94 256.362 154.072V155.224H257.238V154.06C258.042 153.976 258.678 153.7 259.17 153.232C259.662 152.764 259.914 152.188 259.914 151.504C259.914 150.748 259.65 150.184 259.086 149.8C258.69 149.524 258.198 149.332 257.238 149.14V146.284C258.018 146.428 258.63 146.896 259.026 147.664L259.854 146.968C259.41 146.056 258.45 145.468 257.238 145.324V144.172H256.362V145.312C255.582 145.372 254.946 145.636 254.454 146.08C253.962 146.524 253.71 147.088 253.71 147.748C253.71 148.468 253.974 148.996 254.55 149.38C254.934 149.62 255.402 149.8 256.362 150.004V153.088C255.39 152.98 254.646 152.44 254.166 151.516L253.302 152.236ZM254.766 147.676C254.766 146.908 255.402 146.356 256.362 146.26V148.948C255.198 148.696 254.766 148.312 254.766 147.676ZM258.858 151.576C258.858 152.404 258.258 152.956 257.238 153.088V150.196C258.426 150.484 258.858 150.892 258.858 151.576ZM263.672 149.26C264.2 149.26 264.632 149.452 264.98 149.824C265.328 150.196 265.508 150.664 265.508 151.228C265.508 151.78 265.316 152.248 264.944 152.62C264.572 152.992 264.116 153.172 263.576 153.172C262.52 153.172 261.764 152.476 261.584 151.36L260.48 151.588C260.768 153.184 261.932 154.132 263.576 154.132C264.392 154.132 265.148 153.832 265.712 153.304C266.276 152.764 266.588 152.008 266.588 151.204C266.588 150.4 266.312 149.68 265.832 149.152C265.316 148.612 264.62 148.324 263.804 148.324C263.132 148.324 262.52 148.564 262.088 148.996L262.316 146.392H266.12V145.384H261.428L261.056 149.812L262.112 149.992C262.436 149.548 263.012 149.26 263.672 149.26Z" fill="#CCD7E7"/>
<rect x="139.2" y="155.2" width="34.4" height="1.6" rx="0.5" fill="#F0F0F0"/>
<circle cx="117.6" cy="188" r="12.8" fill="#F7F9FE"/>
<rect x="139.2" y="180.8" width="40.8" height="6.4" rx="2" fill="#F7F9FE"/>
<path d="M251.568 191.236C252.108 192.256 253.248 192.94 254.628 193.072V194.224H255.504V193.06C256.308 192.976 256.944 192.7 257.436 192.232C257.928 191.764 258.18 191.188 258.18 190.504C258.18 189.748 257.916 189.184 257.352 188.8C256.956 188.524 256.464 188.332 255.504 188.14V185.284C256.284 185.428 256.896 185.896 257.292 186.664L258.12 185.968C257.676 185.056 256.716 184.468 255.504 184.324V183.172H254.628V184.312C253.848 184.372 253.212 184.636 252.72 185.08C252.228 185.524 251.976 186.088 251.976 186.748C251.976 187.468 252.24 187.996 252.816 188.38C253.2 188.62 253.668 188.8 254.628 189.004V192.088C253.656 191.98 252.912 191.44 252.432 190.516L251.568 191.236ZM253.032 186.676C253.032 185.908 253.668 185.356 254.628 185.26V187.948C253.464 187.696 253.032 187.312 253.032 186.676ZM257.124 190.576C257.124 191.404 256.524 191.956 255.504 192.088V189.196C256.692 189.484 257.124 189.892 257.124 190.576ZM261.062 184.336C260.978 185.344 260.63 185.692 259.622 185.752L258.698 185.812V186.664H260.774V193H261.926V184.336H261.062ZM266.102 193.132C267.194 193.132 268.13 192.604 268.754 191.644C269.27 190.84 269.546 189.796 269.546 188.608C269.546 187.276 269.258 186.208 268.694 185.428C268.13 184.648 267.35 184.252 266.342 184.252C265.526 184.252 264.758 184.564 264.218 185.104C263.654 185.644 263.354 186.4 263.354 187.216C263.354 187.996 263.63 188.716 264.146 189.244C264.674 189.784 265.382 190.084 266.162 190.084C267.17 190.084 268.058 189.556 268.49 188.728V188.848C268.49 189.7 268.31 190.456 267.962 191.032C267.542 191.764 266.87 192.172 266.138 192.172C265.226 192.172 264.602 191.668 264.326 190.744L263.378 191.14C263.774 192.436 264.722 193.132 266.102 193.132ZM266.342 185.2C266.894 185.2 267.35 185.392 267.722 185.764C268.094 186.136 268.274 186.604 268.274 187.156C268.274 187.708 268.082 188.176 267.71 188.56C267.338 188.944 266.87 189.136 266.33 189.136C265.79 189.136 265.334 188.944 264.962 188.572C264.59 188.188 264.41 187.72 264.41 187.156C264.41 186.604 264.59 186.136 264.962 185.764C265.334 185.392 265.79 185.2 266.342 185.2Z" fill="#CCD7E7"/>
<rect x="139.2" y="193.6" width="68" height="1.6" rx="0.5" fill="#F0F0F0"/>
<circle cx="117.6" cy="226.4" r="12.8" fill="#F7F9FE"/>
<rect x="139.2" y="219.2" width="80" height="6.4" rx="2" fill="#F7F9FE"/>
<path d="M247.111 229.236C247.651 230.256 248.791 230.94 250.171 231.072V232.224H251.047V231.06C251.851 230.976 252.487 230.7 252.979 230.232C253.471 229.764 253.723 229.188 253.723 228.504C253.723 227.748 253.459 227.184 252.895 226.8C252.499 226.524 252.007 226.332 251.047 226.14V223.284C251.827 223.428 252.439 223.896 252.835 224.664L253.663 223.968C253.219 223.056 252.259 222.468 251.047 222.324V221.172H250.171V222.312C249.391 222.372 248.755 222.636 248.263 223.08C247.771 223.524 247.519 224.088 247.519 224.748C247.519 225.468 247.783 225.996 248.359 226.38C248.743 226.62 249.211 226.8 250.171 227.004V230.088C249.199 229.98 248.455 229.44 247.975 228.516L247.111 229.236ZM248.575 224.676C248.575 223.908 249.211 223.356 250.171 223.26V225.948C249.007 225.696 248.575 225.312 248.575 224.676ZM252.667 228.576C252.667 229.404 252.067 229.956 251.047 230.088V227.196C252.235 227.484 252.667 227.892 252.667 228.576ZM256.605 222.336C256.521 223.344 256.173 223.692 255.165 223.752L254.241 223.812V224.664H256.317V231H257.469V222.336H256.605ZM258.814 231H264.742V229.992H260.386L262.33 228.408C263.17 227.724 263.758 227.124 264.082 226.608C264.406 226.08 264.574 225.528 264.574 224.94C264.574 224.136 264.31 223.488 263.794 222.996C263.278 222.504 262.582 222.252 261.73 222.252C260.962 222.252 260.266 222.528 259.738 223.008C259.198 223.5 258.886 224.196 258.886 224.952C258.886 225.276 258.934 225.564 259.078 225.948H260.158C260.026 225.624 259.966 225.312 259.966 225.012C259.966 224.508 260.134 224.088 260.458 223.752C260.782 223.404 261.202 223.236 261.706 223.236C262.75 223.236 263.446 223.944 263.446 225.012C263.446 225.576 263.218 226.104 262.726 226.68C262.438 227.016 262.078 227.352 261.358 227.94L258.814 230.052V231ZM270.193 228.756H271.873V227.796H270.205V222.384H268.741L264.961 227.856V228.756H269.125V231H270.193V228.756ZM269.113 223.488V227.796H266.137L269.113 223.488Z" fill="#CCD7E7"/>
<rect x="139.2" y="232" width="13.6" height="1.6" rx="0.5" fill="#F0F0F0"/>
</g>
<g filter="url(#filter1_dd)">
<rect x="48" y="188" width="280" height="160" rx="8" fill="white"/>
<path d="M66.278 216C68.406 216 69.68 214.936 69.68 213.186C69.68 212.024 69.036 211.128 67.972 210.778C68.854 210.4 69.372 209.63 69.372 208.622C69.372 206.886 68.196 205.948 66.026 205.948H61.882V216H66.278ZM63.856 207.656H65.83C66.88 207.656 67.426 208.076 67.426 208.846C67.426 209.63 66.88 210.036 65.83 210.036H63.856V207.656ZM66.138 211.702C67.104 211.702 67.692 212.206 67.692 212.99C67.692 213.788 67.104 214.278 66.138 214.278H63.856V211.702H66.138ZM75.0078 215.314C75.3438 215.944 76.1138 216.168 77.3318 216V214.53C76.8978 214.586 76.7298 214.46 76.7298 214.068V211.058C76.7298 209.392 75.6658 208.496 73.7478 208.496C72.1378 208.496 70.9198 209.392 70.5418 210.75L72.4038 211.1C72.5718 210.428 72.9638 210.12 73.6778 210.12C74.4478 210.12 74.8118 210.456 74.8118 211.142V211.254L72.9778 211.604C71.1718 211.926 70.3178 212.682 70.3178 213.956C70.3178 214.6 70.5558 215.118 71.0178 215.524C71.4798 215.93 72.0818 216.126 72.8238 216.126C73.7618 216.126 74.5178 215.832 75.0078 215.314ZM73.2158 214.642C72.6138 214.642 72.2498 214.348 72.2498 213.844C72.2498 213.354 72.5718 213.074 73.3698 212.92L74.8118 212.626V213.382C74.8118 214.124 74.1258 214.642 73.2158 214.642ZM78.437 205.948V216H80.397V205.948H78.437ZM86.1914 215.314C86.5274 215.944 87.2974 216.168 88.5154 216V214.53C88.0814 214.586 87.9134 214.46 87.9134 214.068V211.058C87.9134 209.392 86.8494 208.496 84.9314 208.496C83.3214 208.496 82.1034 209.392 81.7254 210.75L83.5874 211.1C83.7554 210.428 84.1474 210.12 84.8614 210.12C85.6314 210.12 85.9954 210.456 85.9954 211.142V211.254L84.1614 211.604C82.3554 211.926 81.5014 212.682 81.5014 213.956C81.5014 214.6 81.7394 215.118 82.2014 215.524C82.6634 215.93 83.2654 216.126 84.0074 216.126C84.9454 216.126 85.7014 215.832 86.1914 215.314ZM84.3994 214.642C83.7974 214.642 83.4334 214.348 83.4334 213.844C83.4334 213.354 83.7554 213.074 84.5534 212.92L85.9954 212.626V213.382C85.9954 214.124 85.3094 214.642 84.3994 214.642ZM91.5806 216V211.744C91.5806 210.862 92.1546 210.288 92.9386 210.288C93.7086 210.288 94.1146 210.792 94.1146 211.702V216H96.0746V211.142C96.0746 209.518 95.1086 208.496 93.5966 208.496C92.7706 208.496 92.0706 208.818 91.5806 209.392V208.636H89.6206V216H91.5806ZM100.88 210.134C101.622 210.134 102.154 210.61 102.364 211.45L104.03 210.666C103.638 209.364 102.434 208.496 100.866 208.496C99.802 208.496 98.864 208.874 98.206 209.588C97.548 210.274 97.212 211.24 97.212 212.318C97.212 213.396 97.548 214.362 98.206 215.048C98.864 215.776 99.802 216.154 100.866 216.154C101.664 216.154 102.336 215.958 102.91 215.552C103.484 215.146 103.876 214.6 104.058 213.942L102.364 213.186C102.154 214.026 101.622 214.502 100.88 214.502C99.816 214.502 99.158 213.676 99.158 212.318C99.158 210.974 99.816 210.134 100.88 210.134ZM108.221 216.154C109.733 216.154 110.951 215.356 111.469 214.054L109.817 213.466C109.593 214.152 109.019 214.544 108.235 214.544C107.269 214.544 106.569 213.872 106.443 212.752H111.511V212.178C111.511 211.072 111.203 210.19 110.601 209.518C109.999 208.832 109.173 208.496 108.151 208.496C107.129 208.496 106.205 208.902 105.547 209.63C104.917 210.316 104.567 211.268 104.567 212.318C104.567 213.424 104.917 214.376 105.547 215.062C106.205 215.776 107.143 216.154 108.221 216.154ZM108.137 210.064C108.991 210.064 109.551 210.596 109.565 211.422H106.513C106.737 210.54 107.339 210.064 108.137 210.064ZM115.359 216.154C116.283 216.154 117.039 215.93 117.641 215.468C118.243 215.006 118.551 214.404 118.551 213.662C118.551 212.92 118.243 212.374 117.627 212.024C117.445 211.926 117.221 211.828 116.969 211.744C116.717 211.66 116.311 211.562 115.737 211.436C115.135 211.324 115.037 211.296 114.883 211.24C114.491 211.128 114.337 210.974 114.337 210.694C114.337 210.288 114.743 210.022 115.359 210.022C116.129 210.022 116.843 210.372 117.333 211.002L118.453 209.77C117.851 209 116.661 208.496 115.415 208.496C114.533 208.496 113.805 208.72 113.245 209.168C112.685 209.602 112.405 210.176 112.405 210.89C112.405 211.604 112.671 212.108 113.189 212.444C113.539 212.668 113.959 212.836 114.911 213.018L115.695 213.172C115.793 213.186 115.863 213.214 115.933 213.228C116.451 213.354 116.633 213.536 116.633 213.872C116.633 214.334 116.171 214.628 115.401 214.628C114.561 214.628 113.679 214.18 113.175 213.508L111.957 214.754C112.587 215.608 113.945 216.154 115.359 216.154Z" fill="#959595"/>
<path d="M62.192 308H63.344L64.208 305.732H68.072L68.948 308H70.112L66.788 299.384H65.516L62.192 308ZM67.688 304.724H64.592L66.128 300.68L67.688 304.724ZM73.2726 308.132C73.9686 308.132 74.5446 307.94 75.0126 307.568C75.4806 307.196 75.7086 306.716 75.7086 306.14C75.7086 305.528 75.4686 305.096 74.9406 304.796C74.8086 304.712 74.6406 304.652 74.4606 304.592C74.2806 304.532 73.9326 304.436 73.3926 304.304C72.7806 304.172 72.6486 304.124 72.4926 304.076C72.1206 303.932 71.9646 303.74 71.9646 303.416C71.9646 302.852 72.4446 302.492 73.1646 302.492C73.9206 302.492 74.5326 302.852 74.8686 303.512L75.6366 302.9C75.2526 302.12 74.3046 301.604 73.2126 301.604C72.5406 301.604 71.9886 301.784 71.5566 302.144C71.1246 302.492 70.9086 302.948 70.9086 303.5C70.9086 304.076 71.1126 304.484 71.5806 304.76C71.7126 304.844 71.8806 304.928 72.0726 305C72.2646 305.06 72.5766 305.144 73.0206 305.24C73.3926 305.324 73.6446 305.372 73.7526 305.408C73.8606 305.432 73.9686 305.456 74.0526 305.492C74.4846 305.636 74.6526 305.864 74.6526 306.236C74.6526 306.86 74.1006 307.232 73.2726 307.232C72.4446 307.232 71.6886 306.776 71.3526 306.056L70.5126 306.668C70.9566 307.58 72.0366 308.132 73.2726 308.132ZM79.1085 308.132C79.8045 308.132 80.3805 307.94 80.8485 307.568C81.3165 307.196 81.5445 306.716 81.5445 306.14C81.5445 305.528 81.3045 305.096 80.7765 304.796C80.6445 304.712 80.4765 304.652 80.2965 304.592C80.1165 304.532 79.7685 304.436 79.2285 304.304C78.6165 304.172 78.4845 304.124 78.3285 304.076C77.9565 303.932 77.8005 303.74 77.8005 303.416C77.8005 302.852 78.2805 302.492 79.0005 302.492C79.7565 302.492 80.3685 302.852 80.7045 303.512L81.4725 302.9C81.0885 302.12 80.1405 301.604 79.0485 301.604C78.3765 301.604 77.8245 301.784 77.3925 302.144C76.9605 302.492 76.7445 302.948 76.7445 303.5C76.7445 304.076 76.9485 304.484 77.4165 304.76C77.5485 304.844 77.7165 304.928 77.9085 305C78.1005 305.06 78.4125 305.144 78.8565 305.24C79.2285 305.324 79.4805 305.372 79.5885 305.408C79.6965 305.432 79.8045 305.456 79.8885 305.492C80.3205 305.636 80.4885 305.864 80.4885 306.236C80.4885 306.86 79.9365 307.232 79.1085 307.232C78.2805 307.232 77.5245 306.776 77.1885 306.056L76.3485 306.668C76.7925 307.58 77.8725 308.132 79.1085 308.132ZM85.3885 308.132C86.6245 308.132 87.5845 307.472 87.9685 306.332L87.0205 305.996C86.8285 306.752 86.2165 307.196 85.3885 307.196C84.2845 307.196 83.5405 306.344 83.4805 305.036H88.0165V304.676C88.0165 303.752 87.7765 303.008 87.2965 302.444C86.8165 301.88 86.1685 301.604 85.3405 301.604C84.4885 301.604 83.7325 301.952 83.2045 302.588C82.7125 303.176 82.4485 303.992 82.4485 304.868C82.4485 305.78 82.7245 306.584 83.2165 307.16C83.7445 307.796 84.5125 308.132 85.3885 308.132ZM85.3285 302.528C86.3005 302.528 86.8885 303.188 86.9245 304.208H83.5405C83.7325 303.152 84.4045 302.528 85.3285 302.528ZM91.2089 308.06C91.5449 308.06 91.8689 308.024 92.1569 307.964V307.04C91.9289 307.088 91.7609 307.112 91.4729 307.112C90.8009 307.112 90.5969 306.896 90.5969 306.332V302.648H92.0249V301.724H90.5969V299.888H89.5289V301.724H88.5569V302.648H89.5289V306.5C89.5289 307.592 90.0089 308.06 91.2089 308.06ZM95.5031 308.132C96.1991 308.132 96.7751 307.94 97.2431 307.568C97.7111 307.196 97.9391 306.716 97.9391 306.14C97.9391 305.528 97.6991 305.096 97.1711 304.796C97.0391 304.712 96.8711 304.652 96.6911 304.592C96.5111 304.532 96.1631 304.436 95.6231 304.304C95.0111 304.172 94.8791 304.124 94.7231 304.076C94.3511 303.932 94.1951 303.74 94.1951 303.416C94.1951 302.852 94.6751 302.492 95.3951 302.492C96.1511 302.492 96.7631 302.852 97.0991 303.512L97.8671 302.9C97.4831 302.12 96.5351 301.604 95.4431 301.604C94.7711 301.604 94.2191 301.784 93.7871 302.144C93.3551 302.492 93.1391 302.948 93.1391 303.5C93.1391 304.076 93.3431 304.484 93.8111 304.76C93.9431 304.844 94.1111 304.928 94.3031 305C94.4951 305.06 94.8071 305.144 95.2511 305.24C95.6231 305.324 95.8751 305.372 95.9831 305.408C96.0911 305.432 96.1991 305.456 96.2831 305.492C96.7151 305.636 96.8831 305.864 96.8831 306.236C96.8831 306.86 96.3311 307.232 95.5031 307.232C94.6751 307.232 93.9191 306.776 93.5831 306.056L92.7431 306.668C93.1871 307.58 94.2671 308.132 95.5031 308.132Z" fill="#717698"/>
<path d="M144.13 209.82H138.15V211.09H140.41V217H141.88V211.09H144.13V209.82ZM147.838 212.42C147.368 211.91 146.708 211.64 145.948 211.64C145.188 211.64 144.528 211.91 144.058 212.42C143.608 212.91 143.368 213.6 143.368 214.37C143.368 215.14 143.608 215.83 144.058 216.32C144.528 216.84 145.188 217.11 145.948 217.11C146.708 217.11 147.368 216.84 147.838 216.32C148.288 215.83 148.528 215.14 148.528 214.37C148.528 213.6 148.288 212.91 147.838 212.42ZM145.948 212.8C146.678 212.8 147.128 213.38 147.128 214.37C147.128 215.36 146.678 215.95 145.948 215.95C145.198 215.95 144.758 215.36 144.758 214.37C144.758 213.4 145.218 212.8 145.948 212.8ZM151.361 217.11C151.971 217.11 152.501 216.87 152.831 216.46V217H154.231V209.82H152.831V212.28C152.501 211.87 151.971 211.64 151.361 211.64C150.651 211.64 150.051 211.93 149.641 212.49C149.271 212.97 149.071 213.64 149.071 214.37C149.071 215.1 149.271 215.77 149.641 216.26C150.051 216.81 150.651 217.11 151.361 217.11ZM152.861 214.52C152.861 215.37 152.401 215.91 151.691 215.91C150.931 215.91 150.481 215.33 150.481 214.37C150.481 213.42 150.931 212.84 151.691 212.84C152.401 212.84 152.861 213.38 152.861 214.23V214.52ZM158.377 216.51C158.617 216.96 159.167 217.12 160.037 217V215.95C159.727 215.99 159.607 215.9 159.607 215.62V213.47C159.607 212.28 158.847 211.64 157.477 211.64C156.327 211.64 155.457 212.28 155.187 213.25L156.517 213.5C156.637 213.02 156.917 212.8 157.427 212.8C157.977 212.8 158.237 213.04 158.237 213.53V213.61L156.927 213.86C155.637 214.09 155.027 214.63 155.027 215.54C155.027 216 155.197 216.37 155.527 216.66C155.857 216.95 156.287 217.09 156.817 217.09C157.487 217.09 158.027 216.88 158.377 216.51ZM157.097 216.03C156.667 216.03 156.407 215.82 156.407 215.46C156.407 215.11 156.637 214.91 157.207 214.8L158.237 214.59V215.13C158.237 215.66 157.747 216.03 157.097 216.03ZM165.32 211.74H163.91L162.75 215.2L161.56 211.74H160.11L162 216.79L161.83 217.21C161.7 217.56 161.51 217.69 161.11 217.69C161.04 217.69 160.91 217.68 160.71 217.67V218.8C160.95 218.83 161.05 218.83 161.26 218.83C162.26 218.83 162.83 218.42 163.24 217.3L165.32 211.74Z" fill="#959595"/>
<path d="M184.99 209.82H179.17V210.66H181.6V217H182.56V210.66H184.99V209.82ZM186.714 217V213.88C186.714 213.48 186.844 213.15 187.094 212.9C187.354 212.64 187.664 212.51 188.024 212.51C188.734 212.51 189.114 212.96 189.114 213.79V217H190.014V213.55C190.014 212.4 189.344 211.67 188.274 211.67C187.634 211.67 187.074 211.96 186.714 212.48V209.82H185.814V217H186.714ZM192.399 210.86V209.82H191.419V210.86H192.399ZM191.459 211.77V217H192.359V211.77H191.459ZM195.581 217.11C196.161 217.11 196.641 216.95 197.031 216.64C197.421 216.33 197.611 215.93 197.611 215.45C197.611 214.94 197.411 214.58 196.971 214.33C196.861 214.26 196.721 214.21 196.571 214.16C196.421 214.11 196.131 214.03 195.681 213.92C195.171 213.81 195.061 213.77 194.931 213.73C194.621 213.61 194.491 213.45 194.491 213.18C194.491 212.71 194.891 212.41 195.491 212.41C196.121 212.41 196.631 212.71 196.911 213.26L197.551 212.75C197.231 212.1 196.441 211.67 195.531 211.67C194.971 211.67 194.511 211.82 194.151 212.12C193.791 212.41 193.611 212.79 193.611 213.25C193.611 213.73 193.781 214.07 194.171 214.3C194.281 214.37 194.421 214.44 194.581 214.5C194.741 214.55 195.001 214.62 195.371 214.7C195.681 214.77 195.891 214.81 195.981 214.84C196.071 214.86 196.161 214.88 196.231 214.91C196.591 215.03 196.731 215.22 196.731 215.53C196.731 216.05 196.271 216.36 195.581 216.36C194.891 216.36 194.261 215.98 193.981 215.38L193.281 215.89C193.651 216.65 194.551 217.11 195.581 217.11ZM202.764 215.57L201.234 209.82H200.244L202.224 217H203.164L204.684 211.41L206.214 217H207.154L209.124 209.82H208.174L206.644 215.57L205.124 209.82H204.274L202.764 215.57ZM211.703 217.11C212.733 217.11 213.533 216.56 213.853 215.61L213.063 215.33C212.903 215.96 212.393 216.33 211.703 216.33C210.783 216.33 210.163 215.62 210.113 214.53H213.893V214.23C213.893 213.46 213.693 212.84 213.293 212.37C212.893 211.9 212.353 211.67 211.663 211.67C210.953 211.67 210.323 211.96 209.883 212.49C209.473 212.98 209.253 213.66 209.253 214.39C209.253 215.15 209.483 215.82 209.893 216.3C210.333 216.83 210.973 217.11 211.703 217.11ZM211.653 212.44C212.463 212.44 212.953 212.99 212.983 213.84H210.163C210.323 212.96 210.883 212.44 211.653 212.44ZM217.104 217.11C218.134 217.11 218.934 216.56 219.254 215.61L218.464 215.33C218.304 215.96 217.794 216.33 217.104 216.33C216.184 216.33 215.564 215.62 215.514 214.53H219.294V214.23C219.294 213.46 219.094 212.84 218.694 212.37C218.294 211.9 217.754 211.67 217.064 211.67C216.354 211.67 215.724 211.96 215.284 212.49C214.874 212.98 214.654 213.66 214.654 214.39C214.654 215.15 214.884 215.82 215.294 216.3C215.734 216.83 216.374 217.11 217.104 217.11ZM217.054 212.44C217.864 212.44 218.354 212.99 218.384 213.84H215.564C215.724 212.96 216.284 212.44 217.054 212.44ZM220.414 209.82V217H221.314V215.25L222.074 214.48L223.874 217H224.924L222.714 213.83L224.754 211.77H223.634L221.314 214.21V209.82H220.414Z" fill="#D0D1DD"/>
<path d="M243.99 209.82H238.17V210.66H240.6V217H241.56V210.66H243.99V209.82ZM245.714 217V213.88C245.714 213.48 245.844 213.15 246.094 212.9C246.354 212.64 246.664 212.51 247.024 212.51C247.734 212.51 248.114 212.96 248.114 213.79V217H249.014V213.55C249.014 212.4 248.344 211.67 247.274 211.67C246.634 211.67 246.074 211.96 245.714 212.48V209.82H244.814V217H245.714ZM251.399 210.86V209.82H250.419V210.86H251.399ZM250.459 211.77V217H251.359V211.77H250.459ZM254.581 217.11C255.161 217.11 255.641 216.95 256.031 216.64C256.421 216.33 256.611 215.93 256.611 215.45C256.611 214.94 256.411 214.58 255.971 214.33C255.861 214.26 255.721 214.21 255.571 214.16C255.421 214.11 255.131 214.03 254.681 213.92C254.171 213.81 254.061 213.77 253.931 213.73C253.621 213.61 253.491 213.45 253.491 213.18C253.491 212.71 253.891 212.41 254.491 212.41C255.121 212.41 255.631 212.71 255.911 213.26L256.551 212.75C256.231 212.1 255.441 211.67 254.531 211.67C253.971 211.67 253.511 211.82 253.151 212.12C252.791 212.41 252.611 212.79 252.611 213.25C252.611 213.73 252.781 214.07 253.171 214.3C253.281 214.37 253.421 214.44 253.581 214.5C253.741 214.55 254.001 214.62 254.371 214.7C254.681 214.77 254.891 214.81 254.981 214.84C255.071 214.86 255.161 214.88 255.231 214.91C255.591 215.03 255.731 215.22 255.731 215.53C255.731 216.05 255.271 216.36 254.581 216.36C253.891 216.36 253.261 215.98 252.981 215.38L252.281 215.89C252.651 216.65 253.551 217.11 254.581 217.11ZM265.934 211.09V217H266.824V209.82H265.554L263.364 215.72L261.184 209.82H259.874V217H260.774V211.09L262.964 217H263.734L265.934 211.09ZM272.239 212.48C271.799 211.96 271.159 211.67 270.439 211.67C269.719 211.67 269.079 211.96 268.639 212.48C268.229 212.96 268.009 213.63 268.009 214.39C268.009 215.15 268.229 215.82 268.639 216.3C269.079 216.82 269.719 217.11 270.439 217.11C271.159 217.11 271.799 216.82 272.239 216.3C272.649 215.82 272.869 215.15 272.869 214.39C272.869 213.63 272.649 212.96 272.239 212.48ZM270.439 212.43C271.359 212.43 271.959 213.19 271.959 214.39C271.959 215.58 271.359 216.34 270.439 216.34C269.519 216.34 268.919 215.58 268.919 214.39C268.919 213.19 269.519 212.43 270.439 212.43ZM274.914 217V213.88C274.914 213.48 275.044 213.15 275.294 212.9C275.554 212.64 275.864 212.51 276.224 212.51C276.934 212.51 277.314 212.96 277.314 213.79V217H278.214V213.55C278.214 212.4 277.544 211.67 276.474 211.67C275.834 211.67 275.274 211.96 274.914 212.48V211.77H274.014V217H274.914ZM281.198 217.05C281.478 217.05 281.748 217.02 281.988 216.97V216.2C281.798 216.24 281.658 216.26 281.418 216.26C280.858 216.26 280.688 216.08 280.688 215.61V212.54H281.878V211.77H280.688V210.24H279.798V211.77H278.988V212.54H279.798V215.75C279.798 216.66 280.198 217.05 281.198 217.05ZM283.957 217V213.88C283.957 213.48 284.087 213.15 284.337 212.9C284.597 212.64 284.907 212.51 285.267 212.51C285.977 212.51 286.357 212.96 286.357 213.79V217H287.257V213.55C287.257 212.4 286.587 211.67 285.517 211.67C284.877 211.67 284.317 211.96 283.957 212.48V209.82H283.057V217H283.957Z" fill="#D0D1DD"/>
<line x1="48" y1="230.7" x2="328" y2="230.7" stroke="#F9F9F9"/>
<line x1="48" y1="289.1" x2="328" y2="289.1" stroke="#F9F9F9"/>
<rect width="30" height="1" transform="matrix(1 0 0 -1 135 231)" fill="#959595"/>
<circle cx="73.6" cy="330.4" r="12.8" fill="#F7F9FE"/>
<rect x="95.2" y="323.2" width="61.6" height="6.4" rx="2" fill="#F7F9FE"/>
<rect x="60.8" y="252.8" width="92" height="5.6" rx="2.8" fill="#F7F9FE"/>
<rect x="60.8" y="261.6" width="61.6" height="3.2" rx="1.6" fill="#F0F0F0"/>
<path d="M291.447 333.236C291.987 334.256 293.127 334.94 294.507 335.072V336.224H295.383V335.06C296.187 334.976 296.823 334.7 297.315 334.232C297.807 333.764 298.059 333.188 298.059 332.504C298.059 331.748 297.795 331.184 297.231 330.8C296.835 330.524 296.343 330.332 295.383 330.14V327.284C296.163 327.428 296.775 327.896 297.171 328.664L297.999 327.968C297.555 327.056 296.595 326.468 295.383 326.324V325.172H294.507V326.312C293.727 326.372 293.091 326.636 292.599 327.08C292.107 327.524 291.855 328.088 291.855 328.748C291.855 329.468 292.119 329.996 292.695 330.38C293.079 330.62 293.547 330.8 294.507 331.004V334.088C293.535 333.98 292.791 333.44 292.311 332.516L291.447 333.236ZM292.911 328.676C292.911 327.908 293.547 327.356 294.507 327.26V329.948C293.343 329.696 292.911 329.312 292.911 328.676ZM297.003 332.576C297.003 333.404 296.403 333.956 295.383 334.088V331.196C296.571 331.484 297.003 331.892 297.003 332.576ZM298.709 335H304.637V333.992H300.281L302.225 332.408C303.065 331.724 303.653 331.124 303.977 330.608C304.301 330.08 304.469 329.528 304.469 328.94C304.469 328.136 304.205 327.488 303.689 326.996C303.173 326.504 302.477 326.252 301.625 326.252C300.857 326.252 300.161 326.528 299.633 327.008C299.093 327.5 298.781 328.196 298.781 328.952C298.781 329.276 298.829 329.564 298.973 329.948H300.053C299.921 329.624 299.861 329.312 299.861 329.012C299.861 328.508 300.029 328.088 300.353 327.752C300.677 327.404 301.097 327.236 301.601 327.236C302.645 327.236 303.341 327.944 303.341 329.012C303.341 329.576 303.113 330.104 302.621 330.68C302.333 331.016 301.973 331.352 301.253 331.94L298.709 334.052V335ZM308.834 326.252C307.742 326.252 306.806 326.78 306.182 327.74C305.666 328.544 305.39 329.588 305.39 330.776C305.39 332.108 305.666 333.176 306.23 333.956C306.794 334.736 307.586 335.132 308.594 335.132C309.41 335.132 310.178 334.82 310.718 334.28C311.282 333.74 311.582 332.984 311.582 332.168C311.582 331.388 311.306 330.668 310.79 330.14C310.262 329.6 309.554 329.3 308.774 329.3C307.766 329.3 306.878 329.828 306.446 330.656V330.536C306.446 329.684 306.626 328.928 306.974 328.352C307.394 327.62 308.066 327.212 308.798 327.212C309.71 327.212 310.334 327.716 310.61 328.64L311.558 328.244C311.162 326.948 310.214 326.252 308.834 326.252ZM308.594 334.184C308.042 334.184 307.586 333.992 307.214 333.62C306.842 333.248 306.662 332.78 306.662 332.228C306.662 331.676 306.854 331.208 307.226 330.824C307.598 330.44 308.066 330.248 308.606 330.248C309.146 330.248 309.602 330.44 309.974 330.824C310.346 331.196 310.526 331.664 310.526 332.228C310.526 332.78 310.346 333.248 309.974 333.62C309.602 333.992 309.146 334.184 308.594 334.184Z" fill="#959595"/>
<rect x="95.2" y="336" width="52.8" height="1.6" rx="0.5" fill="#F0F0F0"/>
</g>
<defs>
<filter id="filter0_d" x="85" y="0" width="206" height="254" filterUnits="userSpaceOnUse" color-interpolation-filters="sRGB">
<feFlood flood-opacity="0" result="BackgroundImageFix"/>
<feColorMatrix in="SourceAlpha" type="matrix" values="0 0 0 0 0 0 0 0 0 0 0 0 0 0 0 0 0 0 127 0" result="hardAlpha"/>
<feMorphology radius="1" operator="erode" in="SourceAlpha" result="effect1_dropShadow"/>
<feOffset dy="3"/>
<feGaussianBlur stdDeviation="4"/>
<feComposite in2="hardAlpha" operator="out"/>
<feColorMatrix type="matrix" values="0 0 0 0 0.196078 0 0 0 0 0.196078 0 0 0 0 0.278431 0 0 0 0.07 0"/>
<feBlend mode="normal" in2="BackgroundImageFix" result="effect1_dropShadow"/>
<feBlend mode="normal" in="SourceGraphic" in2="effect1_dropShadow" result="shape"/>
</filter>
<filter id="filter1_dd" x="0" y="140" width="344" height="229" filterUnits="userSpaceOnUse" color-interpolation-filters="sRGB">
<feFlood flood-opacity="0" result="BackgroundImageFix"/>
<feColorMatrix in="SourceAlpha" type="matrix" values="0 0 0 0 0 0 0 0 0 0 0 0 0 0 0 0 0 0 127 0" result="hardAlpha"/>
<feOffset dy="5"/>
<feGaussianBlur stdDeviation="8"/>
<feComposite in2="hardAlpha" operator="out"/>
<feColorMatrix type="matrix" values="0 0 0 0 0.666732 0 0 0 0 0.666732 0 0 0 0 0.666732 0 0 0 0.07 0"/>
<feBlend mode="normal" in2="BackgroundImageFix" result="effect1_dropShadow"/>
<feColorMatrix in="SourceAlpha" type="matrix" values="0 0 0 0 0 0 0 0 0 0 0 0 0 0 0 0 0 0 127 0" result="hardAlpha"/>
<feOffset dx="-16" dy="-16"/>
<feGaussianBlur stdDeviation="16"/>
<feComposite in2="hardAlpha" operator="out"/>
<feColorMatrix type="matrix" values="0 0 0 0 0.733333 0 0 0 0 0.733333 0 0 0 0 0.733333 0 0 0 0.06 0"/>
<feBlend mode="normal" in2="effect1_dropShadow" result="effect2_dropShadow"/>
<feBlend mode="normal" in="SourceGraphic" in2="effect2_dropShadow" result="shape"/>
</filter>
</defs>
</svg>
